%TF.GenerationSoftware,KiCad,Pcbnew,4.0.7*%
%TF.CreationDate,2018-03-29T14:35:10+02:00*%
%TF.ProjectId,mikrobus-board,6D696B726F6275732D626F6172642E6B,rev?*%
%TF.FileFunction,Legend,Top*%
%FSLAX46Y46*%
G04 Gerber Fmt 4.6, Leading zero omitted, Abs format (unit mm)*
G04 Created by KiCad (PCBNEW 4.0.7) date 03/29/18 14:35:10*
%MOMM*%
%LPD*%
G01*
G04 APERTURE LIST*
%ADD10C,0.150000*%
%ADD11C,0.300000*%
%ADD12C,0.100000*%
%ADD13C,0.762000*%
%ADD14C,0.200000*%
%ADD15C,0.010000*%
%ADD16C,0.120000*%
G04 APERTURE END LIST*
D10*
D11*
X177927143Y-156730000D02*
X177784286Y-156658571D01*
X177570000Y-156658571D01*
X177355715Y-156730000D01*
X177212857Y-156872857D01*
X177141429Y-157015714D01*
X177070000Y-157301429D01*
X177070000Y-157515714D01*
X177141429Y-157801429D01*
X177212857Y-157944286D01*
X177355715Y-158087143D01*
X177570000Y-158158571D01*
X177712857Y-158158571D01*
X177927143Y-158087143D01*
X177998572Y-158015714D01*
X177998572Y-157515714D01*
X177712857Y-157515714D01*
X178641429Y-158158571D02*
X178641429Y-156658571D01*
X179498572Y-158158571D01*
X179498572Y-156658571D01*
X180212858Y-158158571D02*
X180212858Y-156658571D01*
X180570001Y-156658571D01*
X180784286Y-156730000D01*
X180927144Y-156872857D01*
X180998572Y-157015714D01*
X181070001Y-157301429D01*
X181070001Y-157515714D01*
X180998572Y-157801429D01*
X180927144Y-157944286D01*
X180784286Y-158087143D01*
X180570001Y-158158571D01*
X180212858Y-158158571D01*
X177070000Y-154118571D02*
X177570000Y-155618571D01*
X178070000Y-154118571D01*
X179427143Y-155475714D02*
X179355714Y-155547143D01*
X179141428Y-155618571D01*
X178998571Y-155618571D01*
X178784286Y-155547143D01*
X178641428Y-155404286D01*
X178570000Y-155261429D01*
X178498571Y-154975714D01*
X178498571Y-154761429D01*
X178570000Y-154475714D01*
X178641428Y-154332857D01*
X178784286Y-154190000D01*
X178998571Y-154118571D01*
X179141428Y-154118571D01*
X179355714Y-154190000D01*
X179427143Y-154261429D01*
X180927143Y-155475714D02*
X180855714Y-155547143D01*
X180641428Y-155618571D01*
X180498571Y-155618571D01*
X180284286Y-155547143D01*
X180141428Y-155404286D01*
X180070000Y-155261429D01*
X179998571Y-154975714D01*
X179998571Y-154761429D01*
X180070000Y-154475714D01*
X180141428Y-154332857D01*
X180284286Y-154190000D01*
X180498571Y-154118571D01*
X180641428Y-154118571D01*
X180855714Y-154190000D01*
X180927143Y-154261429D01*
D12*
X184150000Y-100330000D02*
X184150000Y-165100000D01*
X184150000Y-165100000D02*
X182880000Y-165100000D01*
X182880000Y-100330000D02*
X184150000Y-100330000D01*
X180340000Y-100330000D02*
X182880000Y-100330000D01*
X116840000Y-100330000D02*
X116840000Y-101600000D01*
X119380000Y-100330000D02*
X116840000Y-100330000D01*
D13*
X138067143Y-130447143D02*
X133712858Y-130447143D01*
X135890000Y-130447143D02*
X135890000Y-122827143D01*
X135164286Y-123915714D01*
X134438572Y-124641429D01*
X133712858Y-125004286D01*
D12*
X116840000Y-101600000D02*
X116840000Y-104140000D01*
D11*
X169977857Y-112438571D02*
X169977857Y-110938571D01*
X170549285Y-110938571D01*
X170692143Y-111010000D01*
X170763571Y-111081429D01*
X170835000Y-111224286D01*
X170835000Y-111438571D01*
X170763571Y-111581429D01*
X170692143Y-111652857D01*
X170549285Y-111724286D01*
X169977857Y-111724286D01*
X171335000Y-110938571D02*
X171692143Y-112438571D01*
X171977857Y-111367143D01*
X172263571Y-112438571D01*
X172620714Y-110938571D01*
X173192143Y-112438571D02*
X173192143Y-110938571D01*
X173692143Y-112010000D01*
X174192143Y-110938571D01*
X174192143Y-112438571D01*
X171362857Y-114978571D02*
X171362857Y-113478571D01*
X172077143Y-114978571D02*
X172077143Y-113478571D01*
X172934286Y-114978571D01*
X172934286Y-113478571D01*
X173434286Y-113478571D02*
X174291429Y-113478571D01*
X173862858Y-114978571D02*
X173862858Y-113478571D01*
X172470001Y-117518571D02*
X171970001Y-116804286D01*
X171612858Y-117518571D02*
X171612858Y-116018571D01*
X172184286Y-116018571D01*
X172327144Y-116090000D01*
X172398572Y-116161429D01*
X172470001Y-116304286D01*
X172470001Y-116518571D01*
X172398572Y-116661429D01*
X172327144Y-116732857D01*
X172184286Y-116804286D01*
X171612858Y-116804286D01*
X172970001Y-116018571D02*
X173970001Y-117518571D01*
X173970001Y-116018571D02*
X172970001Y-117518571D01*
X171577143Y-118558571D02*
X172434286Y-118558571D01*
X172005715Y-120058571D02*
X172005715Y-118558571D01*
X172791429Y-118558571D02*
X173791429Y-120058571D01*
X173791429Y-118558571D02*
X172791429Y-120058571D01*
X170299286Y-122527143D02*
X170513572Y-122598571D01*
X170870715Y-122598571D01*
X171013572Y-122527143D01*
X171085001Y-122455714D01*
X171156429Y-122312857D01*
X171156429Y-122170000D01*
X171085001Y-122027143D01*
X171013572Y-121955714D01*
X170870715Y-121884286D01*
X170585001Y-121812857D01*
X170442143Y-121741429D01*
X170370715Y-121670000D01*
X170299286Y-121527143D01*
X170299286Y-121384286D01*
X170370715Y-121241429D01*
X170442143Y-121170000D01*
X170585001Y-121098571D01*
X170942143Y-121098571D01*
X171156429Y-121170000D01*
X172656429Y-122455714D02*
X172585000Y-122527143D01*
X172370714Y-122598571D01*
X172227857Y-122598571D01*
X172013572Y-122527143D01*
X171870714Y-122384286D01*
X171799286Y-122241429D01*
X171727857Y-121955714D01*
X171727857Y-121741429D01*
X171799286Y-121455714D01*
X171870714Y-121312857D01*
X172013572Y-121170000D01*
X172227857Y-121098571D01*
X172370714Y-121098571D01*
X172585000Y-121170000D01*
X172656429Y-121241429D01*
X174013572Y-122598571D02*
X173299286Y-122598571D01*
X173299286Y-121098571D01*
X170263572Y-125067143D02*
X170477858Y-125138571D01*
X170835001Y-125138571D01*
X170977858Y-125067143D01*
X171049287Y-124995714D01*
X171120715Y-124852857D01*
X171120715Y-124710000D01*
X171049287Y-124567143D01*
X170977858Y-124495714D01*
X170835001Y-124424286D01*
X170549287Y-124352857D01*
X170406429Y-124281429D01*
X170335001Y-124210000D01*
X170263572Y-124067143D01*
X170263572Y-123924286D01*
X170335001Y-123781429D01*
X170406429Y-123710000D01*
X170549287Y-123638571D01*
X170906429Y-123638571D01*
X171120715Y-123710000D01*
X171763572Y-125138571D02*
X171763572Y-123638571D01*
X172120715Y-123638571D01*
X172335000Y-123710000D01*
X172477858Y-123852857D01*
X172549286Y-123995714D01*
X172620715Y-124281429D01*
X172620715Y-124495714D01*
X172549286Y-124781429D01*
X172477858Y-124924286D01*
X172335000Y-125067143D01*
X172120715Y-125138571D01*
X171763572Y-125138571D01*
X173192143Y-124710000D02*
X173906429Y-124710000D01*
X173049286Y-125138571D02*
X173549286Y-123638571D01*
X174049286Y-125138571D01*
X170156429Y-127107143D02*
X171299286Y-127107143D01*
X170727857Y-127678571D02*
X170727857Y-126535714D01*
X172727858Y-126178571D02*
X172013572Y-126178571D01*
X171942143Y-126892857D01*
X172013572Y-126821429D01*
X172156429Y-126750000D01*
X172513572Y-126750000D01*
X172656429Y-126821429D01*
X172727858Y-126892857D01*
X172799286Y-127035714D01*
X172799286Y-127392857D01*
X172727858Y-127535714D01*
X172656429Y-127607143D01*
X172513572Y-127678571D01*
X172156429Y-127678571D01*
X172013572Y-127607143D01*
X171942143Y-127535714D01*
X173227857Y-126178571D02*
X173727857Y-127678571D01*
X174227857Y-126178571D01*
X170942143Y-128790000D02*
X170799286Y-128718571D01*
X170585000Y-128718571D01*
X170370715Y-128790000D01*
X170227857Y-128932857D01*
X170156429Y-129075714D01*
X170085000Y-129361429D01*
X170085000Y-129575714D01*
X170156429Y-129861429D01*
X170227857Y-130004286D01*
X170370715Y-130147143D01*
X170585000Y-130218571D01*
X170727857Y-130218571D01*
X170942143Y-130147143D01*
X171013572Y-130075714D01*
X171013572Y-129575714D01*
X170727857Y-129575714D01*
X171656429Y-130218571D02*
X171656429Y-128718571D01*
X172513572Y-130218571D01*
X172513572Y-128718571D01*
X173227858Y-130218571D02*
X173227858Y-128718571D01*
X173585001Y-128718571D01*
X173799286Y-128790000D01*
X173942144Y-128932857D01*
X174013572Y-129075714D01*
X174085001Y-129361429D01*
X174085001Y-129575714D01*
X174013572Y-129861429D01*
X173942144Y-130004286D01*
X173799286Y-130147143D01*
X173585001Y-130218571D01*
X173227858Y-130218571D01*
X156972143Y-128790000D02*
X156829286Y-128718571D01*
X156615000Y-128718571D01*
X156400715Y-128790000D01*
X156257857Y-128932857D01*
X156186429Y-129075714D01*
X156115000Y-129361429D01*
X156115000Y-129575714D01*
X156186429Y-129861429D01*
X156257857Y-130004286D01*
X156400715Y-130147143D01*
X156615000Y-130218571D01*
X156757857Y-130218571D01*
X156972143Y-130147143D01*
X157043572Y-130075714D01*
X157043572Y-129575714D01*
X156757857Y-129575714D01*
X157686429Y-130218571D02*
X157686429Y-128718571D01*
X158543572Y-130218571D01*
X158543572Y-128718571D01*
X159257858Y-130218571D02*
X159257858Y-128718571D01*
X159615001Y-128718571D01*
X159829286Y-128790000D01*
X159972144Y-128932857D01*
X160043572Y-129075714D01*
X160115001Y-129361429D01*
X160115001Y-129575714D01*
X160043572Y-129861429D01*
X159972144Y-130004286D01*
X159829286Y-130147143D01*
X159615001Y-130218571D01*
X159257858Y-130218571D01*
X156385001Y-127107143D02*
X157527858Y-127107143D01*
X156956429Y-127678571D02*
X156956429Y-126535714D01*
X158099287Y-126178571D02*
X159027858Y-126178571D01*
X158527858Y-126750000D01*
X158742144Y-126750000D01*
X158885001Y-126821429D01*
X158956430Y-126892857D01*
X159027858Y-127035714D01*
X159027858Y-127392857D01*
X158956430Y-127535714D01*
X158885001Y-127607143D01*
X158742144Y-127678571D01*
X158313572Y-127678571D01*
X158170715Y-127607143D01*
X158099287Y-127535714D01*
X159670715Y-127535714D02*
X159742143Y-127607143D01*
X159670715Y-127678571D01*
X159599286Y-127607143D01*
X159670715Y-127535714D01*
X159670715Y-127678571D01*
X160242144Y-126178571D02*
X161170715Y-126178571D01*
X160670715Y-126750000D01*
X160885001Y-126750000D01*
X161027858Y-126821429D01*
X161099287Y-126892857D01*
X161170715Y-127035714D01*
X161170715Y-127392857D01*
X161099287Y-127535714D01*
X161027858Y-127607143D01*
X160885001Y-127678571D01*
X160456429Y-127678571D01*
X160313572Y-127607143D01*
X160242144Y-127535714D01*
X161599286Y-126178571D02*
X162099286Y-127678571D01*
X162599286Y-126178571D01*
X156392857Y-125138571D02*
X156392857Y-123638571D01*
X156892857Y-124710000D01*
X157392857Y-123638571D01*
X157392857Y-125138571D01*
X158392857Y-123638571D02*
X158678571Y-123638571D01*
X158821429Y-123710000D01*
X158964286Y-123852857D01*
X159035714Y-124138571D01*
X159035714Y-124638571D01*
X158964286Y-124924286D01*
X158821429Y-125067143D01*
X158678571Y-125138571D01*
X158392857Y-125138571D01*
X158250000Y-125067143D01*
X158107143Y-124924286D01*
X158035714Y-124638571D01*
X158035714Y-124138571D01*
X158107143Y-123852857D01*
X158250000Y-123710000D01*
X158392857Y-123638571D01*
X159607143Y-125067143D02*
X159821429Y-125138571D01*
X160178572Y-125138571D01*
X160321429Y-125067143D01*
X160392858Y-124995714D01*
X160464286Y-124852857D01*
X160464286Y-124710000D01*
X160392858Y-124567143D01*
X160321429Y-124495714D01*
X160178572Y-124424286D01*
X159892858Y-124352857D01*
X159750000Y-124281429D01*
X159678572Y-124210000D01*
X159607143Y-124067143D01*
X159607143Y-123924286D01*
X159678572Y-123781429D01*
X159750000Y-123710000D01*
X159892858Y-123638571D01*
X160250000Y-123638571D01*
X160464286Y-123710000D01*
X161107143Y-125138571D02*
X161107143Y-123638571D01*
X156392857Y-122598571D02*
X156392857Y-121098571D01*
X156892857Y-122170000D01*
X157392857Y-121098571D01*
X157392857Y-122598571D01*
X158107143Y-122598571D02*
X158107143Y-121098571D01*
X158750000Y-122527143D02*
X158964286Y-122598571D01*
X159321429Y-122598571D01*
X159464286Y-122527143D01*
X159535715Y-122455714D01*
X159607143Y-122312857D01*
X159607143Y-122170000D01*
X159535715Y-122027143D01*
X159464286Y-121955714D01*
X159321429Y-121884286D01*
X159035715Y-121812857D01*
X158892857Y-121741429D01*
X158821429Y-121670000D01*
X158750000Y-121527143D01*
X158750000Y-121384286D01*
X158821429Y-121241429D01*
X158892857Y-121170000D01*
X159035715Y-121098571D01*
X159392857Y-121098571D01*
X159607143Y-121170000D01*
X160535714Y-121098571D02*
X160821428Y-121098571D01*
X160964286Y-121170000D01*
X161107143Y-121312857D01*
X161178571Y-121598571D01*
X161178571Y-122098571D01*
X161107143Y-122384286D01*
X160964286Y-122527143D01*
X160821428Y-122598571D01*
X160535714Y-122598571D01*
X160392857Y-122527143D01*
X160250000Y-122384286D01*
X160178571Y-122098571D01*
X160178571Y-121598571D01*
X160250000Y-121312857D01*
X160392857Y-121170000D01*
X160535714Y-121098571D01*
X156186429Y-119987143D02*
X156400715Y-120058571D01*
X156757858Y-120058571D01*
X156900715Y-119987143D01*
X156972144Y-119915714D01*
X157043572Y-119772857D01*
X157043572Y-119630000D01*
X156972144Y-119487143D01*
X156900715Y-119415714D01*
X156757858Y-119344286D01*
X156472144Y-119272857D01*
X156329286Y-119201429D01*
X156257858Y-119130000D01*
X156186429Y-118987143D01*
X156186429Y-118844286D01*
X156257858Y-118701429D01*
X156329286Y-118630000D01*
X156472144Y-118558571D01*
X156829286Y-118558571D01*
X157043572Y-118630000D01*
X158543572Y-119915714D02*
X158472143Y-119987143D01*
X158257857Y-120058571D01*
X158115000Y-120058571D01*
X157900715Y-119987143D01*
X157757857Y-119844286D01*
X157686429Y-119701429D01*
X157615000Y-119415714D01*
X157615000Y-119201429D01*
X157686429Y-118915714D01*
X157757857Y-118772857D01*
X157900715Y-118630000D01*
X158115000Y-118558571D01*
X158257857Y-118558571D01*
X158472143Y-118630000D01*
X158543572Y-118701429D01*
X159186429Y-120058571D02*
X159186429Y-118558571D01*
X160043572Y-120058571D02*
X159400715Y-119201429D01*
X160043572Y-118558571D02*
X159186429Y-119415714D01*
X157230001Y-117375714D02*
X157158572Y-117447143D01*
X156944286Y-117518571D01*
X156801429Y-117518571D01*
X156587144Y-117447143D01*
X156444286Y-117304286D01*
X156372858Y-117161429D01*
X156301429Y-116875714D01*
X156301429Y-116661429D01*
X156372858Y-116375714D01*
X156444286Y-116232857D01*
X156587144Y-116090000D01*
X156801429Y-116018571D01*
X156944286Y-116018571D01*
X157158572Y-116090000D01*
X157230001Y-116161429D01*
X157801429Y-117447143D02*
X158015715Y-117518571D01*
X158372858Y-117518571D01*
X158515715Y-117447143D01*
X158587144Y-117375714D01*
X158658572Y-117232857D01*
X158658572Y-117090000D01*
X158587144Y-116947143D01*
X158515715Y-116875714D01*
X158372858Y-116804286D01*
X158087144Y-116732857D01*
X157944286Y-116661429D01*
X157872858Y-116590000D01*
X157801429Y-116447143D01*
X157801429Y-116304286D01*
X157872858Y-116161429D01*
X157944286Y-116090000D01*
X158087144Y-116018571D01*
X158444286Y-116018571D01*
X158658572Y-116090000D01*
X157293572Y-114978571D02*
X156793572Y-114264286D01*
X156436429Y-114978571D02*
X156436429Y-113478571D01*
X157007857Y-113478571D01*
X157150715Y-113550000D01*
X157222143Y-113621429D01*
X157293572Y-113764286D01*
X157293572Y-113978571D01*
X157222143Y-114121429D01*
X157150715Y-114192857D01*
X157007857Y-114264286D01*
X156436429Y-114264286D01*
X157865000Y-114907143D02*
X158079286Y-114978571D01*
X158436429Y-114978571D01*
X158579286Y-114907143D01*
X158650715Y-114835714D01*
X158722143Y-114692857D01*
X158722143Y-114550000D01*
X158650715Y-114407143D01*
X158579286Y-114335714D01*
X158436429Y-114264286D01*
X158150715Y-114192857D01*
X158007857Y-114121429D01*
X157936429Y-114050000D01*
X157865000Y-113907143D01*
X157865000Y-113764286D01*
X157936429Y-113621429D01*
X158007857Y-113550000D01*
X158150715Y-113478571D01*
X158507857Y-113478571D01*
X158722143Y-113550000D01*
X159150714Y-113478571D02*
X160007857Y-113478571D01*
X159579286Y-114978571D02*
X159579286Y-113478571D01*
X156337143Y-112010000D02*
X157051429Y-112010000D01*
X156194286Y-112438571D02*
X156694286Y-110938571D01*
X157194286Y-112438571D01*
X157694286Y-112438571D02*
X157694286Y-110938571D01*
X158551429Y-112438571D01*
X158551429Y-110938571D01*
X141732143Y-128790000D02*
X141589286Y-128718571D01*
X141375000Y-128718571D01*
X141160715Y-128790000D01*
X141017857Y-128932857D01*
X140946429Y-129075714D01*
X140875000Y-129361429D01*
X140875000Y-129575714D01*
X140946429Y-129861429D01*
X141017857Y-130004286D01*
X141160715Y-130147143D01*
X141375000Y-130218571D01*
X141517857Y-130218571D01*
X141732143Y-130147143D01*
X141803572Y-130075714D01*
X141803572Y-129575714D01*
X141517857Y-129575714D01*
X142446429Y-130218571D02*
X142446429Y-128718571D01*
X143303572Y-130218571D01*
X143303572Y-128718571D01*
X144017858Y-130218571D02*
X144017858Y-128718571D01*
X144375001Y-128718571D01*
X144589286Y-128790000D01*
X144732144Y-128932857D01*
X144803572Y-129075714D01*
X144875001Y-129361429D01*
X144875001Y-129575714D01*
X144803572Y-129861429D01*
X144732144Y-130004286D01*
X144589286Y-130147143D01*
X144375001Y-130218571D01*
X144017858Y-130218571D01*
X140946429Y-127107143D02*
X142089286Y-127107143D01*
X141517857Y-127678571D02*
X141517857Y-126535714D01*
X143517858Y-126178571D02*
X142803572Y-126178571D01*
X142732143Y-126892857D01*
X142803572Y-126821429D01*
X142946429Y-126750000D01*
X143303572Y-126750000D01*
X143446429Y-126821429D01*
X143517858Y-126892857D01*
X143589286Y-127035714D01*
X143589286Y-127392857D01*
X143517858Y-127535714D01*
X143446429Y-127607143D01*
X143303572Y-127678571D01*
X142946429Y-127678571D01*
X142803572Y-127607143D01*
X142732143Y-127535714D01*
X144017857Y-126178571D02*
X144517857Y-127678571D01*
X145017857Y-126178571D01*
X141053572Y-125067143D02*
X141267858Y-125138571D01*
X141625001Y-125138571D01*
X141767858Y-125067143D01*
X141839287Y-124995714D01*
X141910715Y-124852857D01*
X141910715Y-124710000D01*
X141839287Y-124567143D01*
X141767858Y-124495714D01*
X141625001Y-124424286D01*
X141339287Y-124352857D01*
X141196429Y-124281429D01*
X141125001Y-124210000D01*
X141053572Y-124067143D01*
X141053572Y-123924286D01*
X141125001Y-123781429D01*
X141196429Y-123710000D01*
X141339287Y-123638571D01*
X141696429Y-123638571D01*
X141910715Y-123710000D01*
X142553572Y-125138571D02*
X142553572Y-123638571D01*
X142910715Y-123638571D01*
X143125000Y-123710000D01*
X143267858Y-123852857D01*
X143339286Y-123995714D01*
X143410715Y-124281429D01*
X143410715Y-124495714D01*
X143339286Y-124781429D01*
X143267858Y-124924286D01*
X143125000Y-125067143D01*
X142910715Y-125138571D01*
X142553572Y-125138571D01*
X143982143Y-124710000D02*
X144696429Y-124710000D01*
X143839286Y-125138571D02*
X144339286Y-123638571D01*
X144839286Y-125138571D01*
X141089286Y-122527143D02*
X141303572Y-122598571D01*
X141660715Y-122598571D01*
X141803572Y-122527143D01*
X141875001Y-122455714D01*
X141946429Y-122312857D01*
X141946429Y-122170000D01*
X141875001Y-122027143D01*
X141803572Y-121955714D01*
X141660715Y-121884286D01*
X141375001Y-121812857D01*
X141232143Y-121741429D01*
X141160715Y-121670000D01*
X141089286Y-121527143D01*
X141089286Y-121384286D01*
X141160715Y-121241429D01*
X141232143Y-121170000D01*
X141375001Y-121098571D01*
X141732143Y-121098571D01*
X141946429Y-121170000D01*
X143446429Y-122455714D02*
X143375000Y-122527143D01*
X143160714Y-122598571D01*
X143017857Y-122598571D01*
X142803572Y-122527143D01*
X142660714Y-122384286D01*
X142589286Y-122241429D01*
X142517857Y-121955714D01*
X142517857Y-121741429D01*
X142589286Y-121455714D01*
X142660714Y-121312857D01*
X142803572Y-121170000D01*
X143017857Y-121098571D01*
X143160714Y-121098571D01*
X143375000Y-121170000D01*
X143446429Y-121241429D01*
X144803572Y-122598571D02*
X144089286Y-122598571D01*
X144089286Y-121098571D01*
X142367143Y-118558571D02*
X143224286Y-118558571D01*
X142795715Y-120058571D02*
X142795715Y-118558571D01*
X143581429Y-118558571D02*
X144581429Y-120058571D01*
X144581429Y-118558571D02*
X143581429Y-120058571D01*
X143260001Y-117518571D02*
X142760001Y-116804286D01*
X142402858Y-117518571D02*
X142402858Y-116018571D01*
X142974286Y-116018571D01*
X143117144Y-116090000D01*
X143188572Y-116161429D01*
X143260001Y-116304286D01*
X143260001Y-116518571D01*
X143188572Y-116661429D01*
X143117144Y-116732857D01*
X142974286Y-116804286D01*
X142402858Y-116804286D01*
X143760001Y-116018571D02*
X144760001Y-117518571D01*
X144760001Y-116018571D02*
X143760001Y-117518571D01*
X142152857Y-114978571D02*
X142152857Y-113478571D01*
X142867143Y-114978571D02*
X142867143Y-113478571D01*
X143724286Y-114978571D01*
X143724286Y-113478571D01*
X144224286Y-113478571D02*
X145081429Y-113478571D01*
X144652858Y-114978571D02*
X144652858Y-113478571D01*
X140767857Y-112438571D02*
X140767857Y-110938571D01*
X141339285Y-110938571D01*
X141482143Y-111010000D01*
X141553571Y-111081429D01*
X141625000Y-111224286D01*
X141625000Y-111438571D01*
X141553571Y-111581429D01*
X141482143Y-111652857D01*
X141339285Y-111724286D01*
X140767857Y-111724286D01*
X142125000Y-110938571D02*
X142482143Y-112438571D01*
X142767857Y-111367143D01*
X143053571Y-112438571D01*
X143410714Y-110938571D01*
X143982143Y-112438571D02*
X143982143Y-110938571D01*
X144482143Y-112010000D01*
X144982143Y-110938571D01*
X144982143Y-112438571D01*
X127762143Y-128790000D02*
X127619286Y-128718571D01*
X127405000Y-128718571D01*
X127190715Y-128790000D01*
X127047857Y-128932857D01*
X126976429Y-129075714D01*
X126905000Y-129361429D01*
X126905000Y-129575714D01*
X126976429Y-129861429D01*
X127047857Y-130004286D01*
X127190715Y-130147143D01*
X127405000Y-130218571D01*
X127547857Y-130218571D01*
X127762143Y-130147143D01*
X127833572Y-130075714D01*
X127833572Y-129575714D01*
X127547857Y-129575714D01*
X128476429Y-130218571D02*
X128476429Y-128718571D01*
X129333572Y-130218571D01*
X129333572Y-128718571D01*
X130047858Y-130218571D02*
X130047858Y-128718571D01*
X130405001Y-128718571D01*
X130619286Y-128790000D01*
X130762144Y-128932857D01*
X130833572Y-129075714D01*
X130905001Y-129361429D01*
X130905001Y-129575714D01*
X130833572Y-129861429D01*
X130762144Y-130004286D01*
X130619286Y-130147143D01*
X130405001Y-130218571D01*
X130047858Y-130218571D01*
X127175001Y-127107143D02*
X128317858Y-127107143D01*
X127746429Y-127678571D02*
X127746429Y-126535714D01*
X128889287Y-126178571D02*
X129817858Y-126178571D01*
X129317858Y-126750000D01*
X129532144Y-126750000D01*
X129675001Y-126821429D01*
X129746430Y-126892857D01*
X129817858Y-127035714D01*
X129817858Y-127392857D01*
X129746430Y-127535714D01*
X129675001Y-127607143D01*
X129532144Y-127678571D01*
X129103572Y-127678571D01*
X128960715Y-127607143D01*
X128889287Y-127535714D01*
X130460715Y-127535714D02*
X130532143Y-127607143D01*
X130460715Y-127678571D01*
X130389286Y-127607143D01*
X130460715Y-127535714D01*
X130460715Y-127678571D01*
X131032144Y-126178571D02*
X131960715Y-126178571D01*
X131460715Y-126750000D01*
X131675001Y-126750000D01*
X131817858Y-126821429D01*
X131889287Y-126892857D01*
X131960715Y-127035714D01*
X131960715Y-127392857D01*
X131889287Y-127535714D01*
X131817858Y-127607143D01*
X131675001Y-127678571D01*
X131246429Y-127678571D01*
X131103572Y-127607143D01*
X131032144Y-127535714D01*
X132389286Y-126178571D02*
X132889286Y-127678571D01*
X133389286Y-126178571D01*
X127182857Y-125138571D02*
X127182857Y-123638571D01*
X127682857Y-124710000D01*
X128182857Y-123638571D01*
X128182857Y-125138571D01*
X129182857Y-123638571D02*
X129468571Y-123638571D01*
X129611429Y-123710000D01*
X129754286Y-123852857D01*
X129825714Y-124138571D01*
X129825714Y-124638571D01*
X129754286Y-124924286D01*
X129611429Y-125067143D01*
X129468571Y-125138571D01*
X129182857Y-125138571D01*
X129040000Y-125067143D01*
X128897143Y-124924286D01*
X128825714Y-124638571D01*
X128825714Y-124138571D01*
X128897143Y-123852857D01*
X129040000Y-123710000D01*
X129182857Y-123638571D01*
X130397143Y-125067143D02*
X130611429Y-125138571D01*
X130968572Y-125138571D01*
X131111429Y-125067143D01*
X131182858Y-124995714D01*
X131254286Y-124852857D01*
X131254286Y-124710000D01*
X131182858Y-124567143D01*
X131111429Y-124495714D01*
X130968572Y-124424286D01*
X130682858Y-124352857D01*
X130540000Y-124281429D01*
X130468572Y-124210000D01*
X130397143Y-124067143D01*
X130397143Y-123924286D01*
X130468572Y-123781429D01*
X130540000Y-123710000D01*
X130682858Y-123638571D01*
X131040000Y-123638571D01*
X131254286Y-123710000D01*
X131897143Y-125138571D02*
X131897143Y-123638571D01*
X127182857Y-122598571D02*
X127182857Y-121098571D01*
X127682857Y-122170000D01*
X128182857Y-121098571D01*
X128182857Y-122598571D01*
X128897143Y-122598571D02*
X128897143Y-121098571D01*
X129540000Y-122527143D02*
X129754286Y-122598571D01*
X130111429Y-122598571D01*
X130254286Y-122527143D01*
X130325715Y-122455714D01*
X130397143Y-122312857D01*
X130397143Y-122170000D01*
X130325715Y-122027143D01*
X130254286Y-121955714D01*
X130111429Y-121884286D01*
X129825715Y-121812857D01*
X129682857Y-121741429D01*
X129611429Y-121670000D01*
X129540000Y-121527143D01*
X129540000Y-121384286D01*
X129611429Y-121241429D01*
X129682857Y-121170000D01*
X129825715Y-121098571D01*
X130182857Y-121098571D01*
X130397143Y-121170000D01*
X131325714Y-121098571D02*
X131611428Y-121098571D01*
X131754286Y-121170000D01*
X131897143Y-121312857D01*
X131968571Y-121598571D01*
X131968571Y-122098571D01*
X131897143Y-122384286D01*
X131754286Y-122527143D01*
X131611428Y-122598571D01*
X131325714Y-122598571D01*
X131182857Y-122527143D01*
X131040000Y-122384286D01*
X130968571Y-122098571D01*
X130968571Y-121598571D01*
X131040000Y-121312857D01*
X131182857Y-121170000D01*
X131325714Y-121098571D01*
X126976429Y-119987143D02*
X127190715Y-120058571D01*
X127547858Y-120058571D01*
X127690715Y-119987143D01*
X127762144Y-119915714D01*
X127833572Y-119772857D01*
X127833572Y-119630000D01*
X127762144Y-119487143D01*
X127690715Y-119415714D01*
X127547858Y-119344286D01*
X127262144Y-119272857D01*
X127119286Y-119201429D01*
X127047858Y-119130000D01*
X126976429Y-118987143D01*
X126976429Y-118844286D01*
X127047858Y-118701429D01*
X127119286Y-118630000D01*
X127262144Y-118558571D01*
X127619286Y-118558571D01*
X127833572Y-118630000D01*
X129333572Y-119915714D02*
X129262143Y-119987143D01*
X129047857Y-120058571D01*
X128905000Y-120058571D01*
X128690715Y-119987143D01*
X128547857Y-119844286D01*
X128476429Y-119701429D01*
X128405000Y-119415714D01*
X128405000Y-119201429D01*
X128476429Y-118915714D01*
X128547857Y-118772857D01*
X128690715Y-118630000D01*
X128905000Y-118558571D01*
X129047857Y-118558571D01*
X129262143Y-118630000D01*
X129333572Y-118701429D01*
X129976429Y-120058571D02*
X129976429Y-118558571D01*
X130833572Y-120058571D02*
X130190715Y-119201429D01*
X130833572Y-118558571D02*
X129976429Y-119415714D01*
X128020001Y-117375714D02*
X127948572Y-117447143D01*
X127734286Y-117518571D01*
X127591429Y-117518571D01*
X127377144Y-117447143D01*
X127234286Y-117304286D01*
X127162858Y-117161429D01*
X127091429Y-116875714D01*
X127091429Y-116661429D01*
X127162858Y-116375714D01*
X127234286Y-116232857D01*
X127377144Y-116090000D01*
X127591429Y-116018571D01*
X127734286Y-116018571D01*
X127948572Y-116090000D01*
X128020001Y-116161429D01*
X128591429Y-117447143D02*
X128805715Y-117518571D01*
X129162858Y-117518571D01*
X129305715Y-117447143D01*
X129377144Y-117375714D01*
X129448572Y-117232857D01*
X129448572Y-117090000D01*
X129377144Y-116947143D01*
X129305715Y-116875714D01*
X129162858Y-116804286D01*
X128877144Y-116732857D01*
X128734286Y-116661429D01*
X128662858Y-116590000D01*
X128591429Y-116447143D01*
X128591429Y-116304286D01*
X128662858Y-116161429D01*
X128734286Y-116090000D01*
X128877144Y-116018571D01*
X129234286Y-116018571D01*
X129448572Y-116090000D01*
X128083572Y-114978571D02*
X127583572Y-114264286D01*
X127226429Y-114978571D02*
X127226429Y-113478571D01*
X127797857Y-113478571D01*
X127940715Y-113550000D01*
X128012143Y-113621429D01*
X128083572Y-113764286D01*
X128083572Y-113978571D01*
X128012143Y-114121429D01*
X127940715Y-114192857D01*
X127797857Y-114264286D01*
X127226429Y-114264286D01*
X128655000Y-114907143D02*
X128869286Y-114978571D01*
X129226429Y-114978571D01*
X129369286Y-114907143D01*
X129440715Y-114835714D01*
X129512143Y-114692857D01*
X129512143Y-114550000D01*
X129440715Y-114407143D01*
X129369286Y-114335714D01*
X129226429Y-114264286D01*
X128940715Y-114192857D01*
X128797857Y-114121429D01*
X128726429Y-114050000D01*
X128655000Y-113907143D01*
X128655000Y-113764286D01*
X128726429Y-113621429D01*
X128797857Y-113550000D01*
X128940715Y-113478571D01*
X129297857Y-113478571D01*
X129512143Y-113550000D01*
X129940714Y-113478571D02*
X130797857Y-113478571D01*
X130369286Y-114978571D02*
X130369286Y-113478571D01*
X127127143Y-112010000D02*
X127841429Y-112010000D01*
X126984286Y-112438571D02*
X127484286Y-110938571D01*
X127984286Y-112438571D01*
X128484286Y-112438571D02*
X128484286Y-110938571D01*
X129341429Y-112438571D01*
X129341429Y-110938571D01*
D12*
X180340000Y-165100000D02*
X182880000Y-165100000D01*
D13*
X162922858Y-123552857D02*
X163285715Y-123190000D01*
X164011429Y-122827143D01*
X165825715Y-122827143D01*
X166551429Y-123190000D01*
X166914286Y-123552857D01*
X167277143Y-124278571D01*
X167277143Y-125004286D01*
X166914286Y-126092857D01*
X162560000Y-130447143D01*
X167277143Y-130447143D01*
D14*
X179070000Y-108585000D02*
G75*
G03X176530000Y-106045000I-2540000J0D01*
G01*
X179070000Y-111760000D02*
X179070000Y-108585000D01*
X179070000Y-129540000D02*
X179070000Y-131445000D01*
X179070000Y-111760000D02*
X179070000Y-129540000D01*
X176530000Y-133985000D02*
G75*
G03X179070000Y-131445000I0J2540000D01*
G01*
X153670000Y-133985000D02*
X176530000Y-133985000D01*
X151130000Y-131445000D02*
G75*
G03X153670000Y-133985000I2540000J0D01*
G01*
X151130000Y-129540000D02*
X151130000Y-131445000D01*
X151130000Y-108585000D02*
X151130000Y-111760000D01*
X151130000Y-111760000D02*
X151130000Y-129540000D01*
X153670000Y-106045000D02*
G75*
G03X151130000Y-108585000I0J-2540000D01*
G01*
D12*
X116840000Y-106680000D02*
X116840000Y-104140000D01*
D14*
X148590000Y-130810000D02*
X146050000Y-133350000D01*
X121920000Y-129540000D02*
X121920000Y-131445000D01*
X149860000Y-129540000D02*
X149860000Y-131445000D01*
X149860000Y-111760000D02*
X149860000Y-108585000D01*
X121920000Y-108585000D02*
X121920000Y-111760000D01*
X124460000Y-133985000D02*
X147320000Y-133985000D01*
X147320000Y-133985000D02*
G75*
G03X149860000Y-131445000I0J2540000D01*
G01*
X121920000Y-131445000D02*
G75*
G03X124460000Y-133985000I2540000J0D01*
G01*
X149860000Y-108585000D02*
G75*
G03X147320000Y-106045000I-2540000J0D01*
G01*
X124460000Y-106045000D02*
G75*
G03X121920000Y-108585000I0J-2540000D01*
G01*
X149860000Y-111760000D02*
X149860000Y-129540000D01*
X121920000Y-111760000D02*
X121920000Y-129540000D01*
D12*
X116840000Y-165100000D02*
X119380000Y-165100000D01*
X116840000Y-106680000D02*
X116840000Y-165100000D01*
X180340000Y-165100000D02*
X119380000Y-165100000D01*
X119380000Y-100330000D02*
X180340000Y-100330000D01*
D15*
G36*
X162734776Y-105872655D02*
X162889564Y-105953214D01*
X163005799Y-106080175D01*
X163077155Y-106247562D01*
X163095575Y-106361960D01*
X163083313Y-106562580D01*
X163015901Y-106735070D01*
X162896477Y-106873941D01*
X162751544Y-106963667D01*
X162635600Y-107015937D01*
X162652926Y-107866447D01*
X163225975Y-107883158D01*
X163799024Y-107899868D01*
X163799024Y-108993139D01*
X163933205Y-109061434D01*
X164073807Y-109166498D01*
X164173239Y-109309693D01*
X164226868Y-109476791D01*
X164230064Y-109653564D01*
X164180468Y-109821093D01*
X164073054Y-109982968D01*
X163937738Y-110092581D01*
X163785162Y-110150002D01*
X163625966Y-110155303D01*
X163470788Y-110108552D01*
X163330270Y-110009822D01*
X163215051Y-109859181D01*
X163191985Y-109814555D01*
X163142883Y-109667904D01*
X163142422Y-109523605D01*
X163191315Y-109363227D01*
X163211221Y-109318700D01*
X163285587Y-109192112D01*
X163381806Y-109100655D01*
X163443092Y-109060798D01*
X163596790Y-108969342D01*
X163597236Y-108542779D01*
X163597683Y-108116216D01*
X162556462Y-108125016D01*
X161515242Y-108133816D01*
X161515957Y-108468026D01*
X161516256Y-108661503D01*
X161518028Y-108799558D01*
X161524033Y-108893597D01*
X161537028Y-108955026D01*
X161559773Y-108995252D01*
X161595024Y-109025681D01*
X161645541Y-109057718D01*
X161660884Y-109067318D01*
X161784314Y-109172024D01*
X161877713Y-109299022D01*
X161942017Y-109471947D01*
X161951831Y-109639805D01*
X161914590Y-109795555D01*
X161837727Y-109932157D01*
X161728677Y-110042572D01*
X161594874Y-110119758D01*
X161443753Y-110156676D01*
X161282747Y-110146285D01*
X161119292Y-110081546D01*
X161078566Y-110055805D01*
X160979080Y-109976115D01*
X160916754Y-109890081D01*
X160883757Y-109779537D01*
X160872262Y-109626319D01*
X160871829Y-109576157D01*
X160891743Y-109385034D01*
X160955381Y-109235646D01*
X161068584Y-109116839D01*
X161136446Y-109070868D01*
X161259024Y-108996884D01*
X161276316Y-108116214D01*
X159183658Y-108133816D01*
X159175029Y-108554188D01*
X159166399Y-108974561D01*
X159305080Y-109051518D01*
X159449684Y-109148755D01*
X159546001Y-109259043D01*
X159607616Y-109398711D01*
X159614881Y-109423843D01*
X159635898Y-109613709D01*
X159599396Y-109800532D01*
X159536069Y-109927614D01*
X159425022Y-110042200D01*
X159278037Y-110119026D01*
X159112164Y-110154960D01*
X158944453Y-110146873D01*
X158791955Y-110091634D01*
X158758579Y-110070355D01*
X158633338Y-109946297D01*
X158555984Y-109793956D01*
X158525469Y-109626031D01*
X158540740Y-109455224D01*
X158600747Y-109294235D01*
X158704439Y-109155765D01*
X158842446Y-109056648D01*
X158982317Y-108985710D01*
X158982317Y-107884633D01*
X159563109Y-107875540D01*
X160143902Y-107866447D01*
X160152565Y-107441192D01*
X160161229Y-107015937D01*
X160044573Y-106963347D01*
X159881496Y-106858529D01*
X159768518Y-106714629D01*
X159706819Y-106533576D01*
X159694756Y-106391386D01*
X159724199Y-106209667D01*
X159806657Y-106047693D01*
X159933320Y-105920918D01*
X159979742Y-105891430D01*
X160070287Y-105861893D01*
X160193428Y-105847286D01*
X160323278Y-105848102D01*
X160433949Y-105864836D01*
X160478926Y-105881905D01*
X160596228Y-105970679D01*
X160699373Y-106090719D01*
X160769477Y-106218588D01*
X160782023Y-106258030D01*
X160798244Y-106443812D01*
X160759497Y-106624012D01*
X160672189Y-106783957D01*
X160542726Y-106908975D01*
X160481936Y-106945227D01*
X160345243Y-107014553D01*
X160345243Y-107883158D01*
X162451585Y-107883158D01*
X162451585Y-107014553D01*
X162314937Y-106945250D01*
X162169231Y-106838396D01*
X162067055Y-106695620D01*
X162010675Y-106529938D01*
X162002357Y-106354369D01*
X162044368Y-106181931D01*
X162138975Y-106025641D01*
X162152206Y-106010528D01*
X162251284Y-105917859D01*
X162353055Y-105866354D01*
X162481195Y-105846072D01*
X162547762Y-105844474D01*
X162734776Y-105872655D01*
X162734776Y-105872655D01*
G37*
X162734776Y-105872655D02*
X162889564Y-105953214D01*
X163005799Y-106080175D01*
X163077155Y-106247562D01*
X163095575Y-106361960D01*
X163083313Y-106562580D01*
X163015901Y-106735070D01*
X162896477Y-106873941D01*
X162751544Y-106963667D01*
X162635600Y-107015937D01*
X162652926Y-107866447D01*
X163225975Y-107883158D01*
X163799024Y-107899868D01*
X163799024Y-108993139D01*
X163933205Y-109061434D01*
X164073807Y-109166498D01*
X164173239Y-109309693D01*
X164226868Y-109476791D01*
X164230064Y-109653564D01*
X164180468Y-109821093D01*
X164073054Y-109982968D01*
X163937738Y-110092581D01*
X163785162Y-110150002D01*
X163625966Y-110155303D01*
X163470788Y-110108552D01*
X163330270Y-110009822D01*
X163215051Y-109859181D01*
X163191985Y-109814555D01*
X163142883Y-109667904D01*
X163142422Y-109523605D01*
X163191315Y-109363227D01*
X163211221Y-109318700D01*
X163285587Y-109192112D01*
X163381806Y-109100655D01*
X163443092Y-109060798D01*
X163596790Y-108969342D01*
X163597236Y-108542779D01*
X163597683Y-108116216D01*
X162556462Y-108125016D01*
X161515242Y-108133816D01*
X161515957Y-108468026D01*
X161516256Y-108661503D01*
X161518028Y-108799558D01*
X161524033Y-108893597D01*
X161537028Y-108955026D01*
X161559773Y-108995252D01*
X161595024Y-109025681D01*
X161645541Y-109057718D01*
X161660884Y-109067318D01*
X161784314Y-109172024D01*
X161877713Y-109299022D01*
X161942017Y-109471947D01*
X161951831Y-109639805D01*
X161914590Y-109795555D01*
X161837727Y-109932157D01*
X161728677Y-110042572D01*
X161594874Y-110119758D01*
X161443753Y-110156676D01*
X161282747Y-110146285D01*
X161119292Y-110081546D01*
X161078566Y-110055805D01*
X160979080Y-109976115D01*
X160916754Y-109890081D01*
X160883757Y-109779537D01*
X160872262Y-109626319D01*
X160871829Y-109576157D01*
X160891743Y-109385034D01*
X160955381Y-109235646D01*
X161068584Y-109116839D01*
X161136446Y-109070868D01*
X161259024Y-108996884D01*
X161276316Y-108116214D01*
X159183658Y-108133816D01*
X159175029Y-108554188D01*
X159166399Y-108974561D01*
X159305080Y-109051518D01*
X159449684Y-109148755D01*
X159546001Y-109259043D01*
X159607616Y-109398711D01*
X159614881Y-109423843D01*
X159635898Y-109613709D01*
X159599396Y-109800532D01*
X159536069Y-109927614D01*
X159425022Y-110042200D01*
X159278037Y-110119026D01*
X159112164Y-110154960D01*
X158944453Y-110146873D01*
X158791955Y-110091634D01*
X158758579Y-110070355D01*
X158633338Y-109946297D01*
X158555984Y-109793956D01*
X158525469Y-109626031D01*
X158540740Y-109455224D01*
X158600747Y-109294235D01*
X158704439Y-109155765D01*
X158842446Y-109056648D01*
X158982317Y-108985710D01*
X158982317Y-107884633D01*
X159563109Y-107875540D01*
X160143902Y-107866447D01*
X160152565Y-107441192D01*
X160161229Y-107015937D01*
X160044573Y-106963347D01*
X159881496Y-106858529D01*
X159768518Y-106714629D01*
X159706819Y-106533576D01*
X159694756Y-106391386D01*
X159724199Y-106209667D01*
X159806657Y-106047693D01*
X159933320Y-105920918D01*
X159979742Y-105891430D01*
X160070287Y-105861893D01*
X160193428Y-105847286D01*
X160323278Y-105848102D01*
X160433949Y-105864836D01*
X160478926Y-105881905D01*
X160596228Y-105970679D01*
X160699373Y-106090719D01*
X160769477Y-106218588D01*
X160782023Y-106258030D01*
X160798244Y-106443812D01*
X160759497Y-106624012D01*
X160672189Y-106783957D01*
X160542726Y-106908975D01*
X160481936Y-106945227D01*
X160345243Y-107014553D01*
X160345243Y-107883158D01*
X162451585Y-107883158D01*
X162451585Y-107014553D01*
X162314937Y-106945250D01*
X162169231Y-106838396D01*
X162067055Y-106695620D01*
X162010675Y-106529938D01*
X162002357Y-106354369D01*
X162044368Y-106181931D01*
X162138975Y-106025641D01*
X162152206Y-106010528D01*
X162251284Y-105917859D01*
X162353055Y-105866354D01*
X162481195Y-105846072D01*
X162547762Y-105844474D01*
X162734776Y-105872655D01*
G36*
X165675125Y-108117584D02*
X165837581Y-108119643D01*
X165957789Y-108124223D01*
X166045601Y-108132258D01*
X166110865Y-108144688D01*
X166163432Y-108162450D01*
X166213152Y-108186481D01*
X166218262Y-108189219D01*
X166339070Y-108282085D01*
X166413415Y-108409472D01*
X166445447Y-108579651D01*
X166447439Y-108645973D01*
X166438320Y-108770014D01*
X166403994Y-108863590D01*
X166362754Y-108925001D01*
X166304624Y-108998362D01*
X166261079Y-109048124D01*
X166252598Y-109056029D01*
X166257454Y-109088529D01*
X166298068Y-109149455D01*
X166333376Y-109190512D01*
X166426963Y-109334376D01*
X166468074Y-109496656D01*
X166458078Y-109662709D01*
X166398346Y-109817897D01*
X166290247Y-109947577D01*
X166260355Y-109971052D01*
X166122266Y-110071116D01*
X165502718Y-110083418D01*
X165312593Y-110085942D01*
X165143741Y-110085806D01*
X165005897Y-110083212D01*
X164908800Y-110078363D01*
X164862184Y-110071461D01*
X164859939Y-110070053D01*
X164853990Y-110031263D01*
X164848605Y-109934263D01*
X164843985Y-109787684D01*
X164842043Y-109687895D01*
X165205458Y-109687895D01*
X165950238Y-109687895D01*
X165993768Y-109595987D01*
X166019685Y-109483209D01*
X165985859Y-109385114D01*
X165893700Y-109305701D01*
X165890784Y-109304058D01*
X165819511Y-109276226D01*
X165721616Y-109261664D01*
X165582717Y-109258728D01*
X165509735Y-109260532D01*
X165223902Y-109270132D01*
X165214680Y-109479013D01*
X165205458Y-109687895D01*
X164842043Y-109687895D01*
X164840334Y-109600157D01*
X164837853Y-109380314D01*
X164836746Y-109136784D01*
X164836707Y-109080746D01*
X164836707Y-108758573D01*
X165208861Y-108758573D01*
X165216791Y-108839788D01*
X165249137Y-108886785D01*
X165315815Y-108907572D01*
X165426742Y-108910159D01*
X165549269Y-108904750D01*
X165687830Y-108894404D01*
X165808206Y-108879575D01*
X165893458Y-108862637D01*
X165920221Y-108852733D01*
X165966701Y-108801213D01*
X165982442Y-108708463D01*
X165982609Y-108692442D01*
X165971097Y-108600659D01*
X165931748Y-108537199D01*
X165856840Y-108498604D01*
X165738646Y-108481415D01*
X165569443Y-108482173D01*
X165518708Y-108484737D01*
X165224977Y-108501447D01*
X165215430Y-108635132D01*
X165208861Y-108758573D01*
X164836707Y-108758573D01*
X164836707Y-108117105D01*
X165460570Y-108117105D01*
X165675125Y-108117584D01*
X165675125Y-108117584D01*
G37*
X165675125Y-108117584D02*
X165837581Y-108119643D01*
X165957789Y-108124223D01*
X166045601Y-108132258D01*
X166110865Y-108144688D01*
X166163432Y-108162450D01*
X166213152Y-108186481D01*
X166218262Y-108189219D01*
X166339070Y-108282085D01*
X166413415Y-108409472D01*
X166445447Y-108579651D01*
X166447439Y-108645973D01*
X166438320Y-108770014D01*
X166403994Y-108863590D01*
X166362754Y-108925001D01*
X166304624Y-108998362D01*
X166261079Y-109048124D01*
X166252598Y-109056029D01*
X166257454Y-109088529D01*
X166298068Y-109149455D01*
X166333376Y-109190512D01*
X166426963Y-109334376D01*
X166468074Y-109496656D01*
X166458078Y-109662709D01*
X166398346Y-109817897D01*
X166290247Y-109947577D01*
X166260355Y-109971052D01*
X166122266Y-110071116D01*
X165502718Y-110083418D01*
X165312593Y-110085942D01*
X165143741Y-110085806D01*
X165005897Y-110083212D01*
X164908800Y-110078363D01*
X164862184Y-110071461D01*
X164859939Y-110070053D01*
X164853990Y-110031263D01*
X164848605Y-109934263D01*
X164843985Y-109787684D01*
X164842043Y-109687895D01*
X165205458Y-109687895D01*
X165950238Y-109687895D01*
X165993768Y-109595987D01*
X166019685Y-109483209D01*
X165985859Y-109385114D01*
X165893700Y-109305701D01*
X165890784Y-109304058D01*
X165819511Y-109276226D01*
X165721616Y-109261664D01*
X165582717Y-109258728D01*
X165509735Y-109260532D01*
X165223902Y-109270132D01*
X165214680Y-109479013D01*
X165205458Y-109687895D01*
X164842043Y-109687895D01*
X164840334Y-109600157D01*
X164837853Y-109380314D01*
X164836746Y-109136784D01*
X164836707Y-109080746D01*
X164836707Y-108758573D01*
X165208861Y-108758573D01*
X165216791Y-108839788D01*
X165249137Y-108886785D01*
X165315815Y-108907572D01*
X165426742Y-108910159D01*
X165549269Y-108904750D01*
X165687830Y-108894404D01*
X165808206Y-108879575D01*
X165893458Y-108862637D01*
X165920221Y-108852733D01*
X165966701Y-108801213D01*
X165982442Y-108708463D01*
X165982609Y-108692442D01*
X165971097Y-108600659D01*
X165931748Y-108537199D01*
X165856840Y-108498604D01*
X165738646Y-108481415D01*
X165569443Y-108482173D01*
X165518708Y-108484737D01*
X165224977Y-108501447D01*
X165215430Y-108635132D01*
X165208861Y-108758573D01*
X164836707Y-108758573D01*
X164836707Y-108117105D01*
X165460570Y-108117105D01*
X165675125Y-108117584D01*
G36*
X168127865Y-108084196D02*
X168228627Y-108089676D01*
X168306840Y-108103110D01*
X168332250Y-108113264D01*
X168346107Y-108134993D01*
X168356152Y-108183482D01*
X168362679Y-108266215D01*
X168365981Y-108390680D01*
X168366353Y-108564361D01*
X168364088Y-108794744D01*
X168362732Y-108889791D01*
X168357848Y-109161377D01*
X168350575Y-109375143D01*
X168338248Y-109540110D01*
X168318203Y-109665298D01*
X168287774Y-109759729D01*
X168244297Y-109832425D01*
X168185107Y-109892405D01*
X168107538Y-109948692D01*
X168036770Y-109993252D01*
X167965036Y-110029577D01*
X167881005Y-110053338D01*
X167768176Y-110067725D01*
X167610047Y-110075928D01*
X167609024Y-110075962D01*
X167465701Y-110077786D01*
X167336092Y-110074259D01*
X167239066Y-110066132D01*
X167206341Y-110059949D01*
X167020765Y-109982708D01*
X166884257Y-109867680D01*
X166792330Y-109710679D01*
X166773035Y-109655619D01*
X166755843Y-109585855D01*
X166743562Y-109498469D01*
X166735709Y-109383294D01*
X166731803Y-109230163D01*
X166731363Y-109028909D01*
X166733304Y-108816538D01*
X166741707Y-108133816D01*
X166950792Y-108123933D01*
X167159878Y-108114051D01*
X167159878Y-108794047D01*
X167161072Y-109064262D01*
X167166518Y-109275412D01*
X167179008Y-109435255D01*
X167201333Y-109551549D01*
X167236286Y-109632052D01*
X167286660Y-109684522D01*
X167355246Y-109716719D01*
X167444836Y-109736399D01*
X167501929Y-109744425D01*
X167669985Y-109742518D01*
X167799012Y-109688706D01*
X167889244Y-109582789D01*
X167940915Y-109424566D01*
X167949596Y-109360309D01*
X167953726Y-109285929D01*
X167957469Y-109158784D01*
X167960544Y-108992951D01*
X167962674Y-108802506D01*
X167963459Y-108660197D01*
X167965243Y-108083684D01*
X168127865Y-108084196D01*
X168127865Y-108084196D01*
G37*
X168127865Y-108084196D02*
X168228627Y-108089676D01*
X168306840Y-108103110D01*
X168332250Y-108113264D01*
X168346107Y-108134993D01*
X168356152Y-108183482D01*
X168362679Y-108266215D01*
X168365981Y-108390680D01*
X168366353Y-108564361D01*
X168364088Y-108794744D01*
X168362732Y-108889791D01*
X168357848Y-109161377D01*
X168350575Y-109375143D01*
X168338248Y-109540110D01*
X168318203Y-109665298D01*
X168287774Y-109759729D01*
X168244297Y-109832425D01*
X168185107Y-109892405D01*
X168107538Y-109948692D01*
X168036770Y-109993252D01*
X167965036Y-110029577D01*
X167881005Y-110053338D01*
X167768176Y-110067725D01*
X167610047Y-110075928D01*
X167609024Y-110075962D01*
X167465701Y-110077786D01*
X167336092Y-110074259D01*
X167239066Y-110066132D01*
X167206341Y-110059949D01*
X167020765Y-109982708D01*
X166884257Y-109867680D01*
X166792330Y-109710679D01*
X166773035Y-109655619D01*
X166755843Y-109585855D01*
X166743562Y-109498469D01*
X166735709Y-109383294D01*
X166731803Y-109230163D01*
X166731363Y-109028909D01*
X166733304Y-108816538D01*
X166741707Y-108133816D01*
X166950792Y-108123933D01*
X167159878Y-108114051D01*
X167159878Y-108794047D01*
X167161072Y-109064262D01*
X167166518Y-109275412D01*
X167179008Y-109435255D01*
X167201333Y-109551549D01*
X167236286Y-109632052D01*
X167286660Y-109684522D01*
X167355246Y-109716719D01*
X167444836Y-109736399D01*
X167501929Y-109744425D01*
X167669985Y-109742518D01*
X167799012Y-109688706D01*
X167889244Y-109582789D01*
X167940915Y-109424566D01*
X167949596Y-109360309D01*
X167953726Y-109285929D01*
X167957469Y-109158784D01*
X167960544Y-108992951D01*
X167962674Y-108802506D01*
X167963459Y-108660197D01*
X167965243Y-108083684D01*
X168127865Y-108084196D01*
G36*
X169793052Y-108083375D02*
X169957017Y-108087224D01*
X170098711Y-108094479D01*
X170206505Y-108105068D01*
X170268771Y-108118918D01*
X170278399Y-108125460D01*
X170296441Y-108184086D01*
X170305247Y-108276800D01*
X170305423Y-108300921D01*
X170303902Y-108434605D01*
X169779224Y-108443797D01*
X169586731Y-108447577D01*
X169445705Y-108452190D01*
X169345668Y-108459200D01*
X169276140Y-108470171D01*
X169226640Y-108486667D01*
X169186689Y-108510252D01*
X169151968Y-108537406D01*
X169072714Y-108629465D01*
X169051203Y-108723318D01*
X169088614Y-108811453D01*
X169106036Y-108830478D01*
X169141933Y-108854730D01*
X169198218Y-108870955D01*
X169286078Y-108880575D01*
X169416702Y-108885009D01*
X169541618Y-108885789D01*
X169781918Y-108892546D01*
X169969250Y-108914288D01*
X170111458Y-108953229D01*
X170216384Y-109011579D01*
X170291870Y-109091550D01*
X170296718Y-109098716D01*
X170333157Y-109165324D01*
X170354272Y-109241454D01*
X170363815Y-109347360D01*
X170365638Y-109470658D01*
X170357121Y-109653387D01*
X170327160Y-109786431D01*
X170268623Y-109885137D01*
X170174382Y-109964854D01*
X170121061Y-109997142D01*
X170072128Y-110021907D01*
X170018881Y-110040586D01*
X169951518Y-110054273D01*
X169860235Y-110064060D01*
X169735231Y-110071041D01*
X169566704Y-110076309D01*
X169374634Y-110080396D01*
X169183108Y-110082567D01*
X169011522Y-110081713D01*
X168869971Y-110078112D01*
X168768551Y-110072040D01*
X168717356Y-110063775D01*
X168714511Y-110062275D01*
X168687515Y-110003594D01*
X168682654Y-109885629D01*
X168683535Y-109868477D01*
X168693170Y-109704605D01*
X169269315Y-109687895D01*
X169491604Y-109680342D01*
X169659490Y-109670824D01*
X169780519Y-109657121D01*
X169862240Y-109637014D01*
X169912199Y-109608285D01*
X169937944Y-109568715D01*
X169947023Y-109516084D01*
X169947683Y-109488456D01*
X169941197Y-109419151D01*
X169916254Y-109367959D01*
X169864621Y-109331682D01*
X169778069Y-109307122D01*
X169648365Y-109291082D01*
X169467280Y-109280363D01*
X169405609Y-109277856D01*
X169222004Y-109269359D01*
X169087355Y-109258717D01*
X168988671Y-109243884D01*
X168912957Y-109222817D01*
X168847221Y-109193468D01*
X168837946Y-109188513D01*
X168711187Y-109085477D01*
X168632259Y-108941524D01*
X168601999Y-108759294D01*
X168621243Y-108541423D01*
X168625622Y-108519231D01*
X168686156Y-108351654D01*
X168791116Y-108228076D01*
X168943229Y-108145894D01*
X169046171Y-108117764D01*
X169147059Y-108103493D01*
X169283819Y-108092991D01*
X169444824Y-108086185D01*
X169618445Y-108083004D01*
X169793052Y-108083375D01*
X169793052Y-108083375D01*
G37*
X169793052Y-108083375D02*
X169957017Y-108087224D01*
X170098711Y-108094479D01*
X170206505Y-108105068D01*
X170268771Y-108118918D01*
X170278399Y-108125460D01*
X170296441Y-108184086D01*
X170305247Y-108276800D01*
X170305423Y-108300921D01*
X170303902Y-108434605D01*
X169779224Y-108443797D01*
X169586731Y-108447577D01*
X169445705Y-108452190D01*
X169345668Y-108459200D01*
X169276140Y-108470171D01*
X169226640Y-108486667D01*
X169186689Y-108510252D01*
X169151968Y-108537406D01*
X169072714Y-108629465D01*
X169051203Y-108723318D01*
X169088614Y-108811453D01*
X169106036Y-108830478D01*
X169141933Y-108854730D01*
X169198218Y-108870955D01*
X169286078Y-108880575D01*
X169416702Y-108885009D01*
X169541618Y-108885789D01*
X169781918Y-108892546D01*
X169969250Y-108914288D01*
X170111458Y-108953229D01*
X170216384Y-109011579D01*
X170291870Y-109091550D01*
X170296718Y-109098716D01*
X170333157Y-109165324D01*
X170354272Y-109241454D01*
X170363815Y-109347360D01*
X170365638Y-109470658D01*
X170357121Y-109653387D01*
X170327160Y-109786431D01*
X170268623Y-109885137D01*
X170174382Y-109964854D01*
X170121061Y-109997142D01*
X170072128Y-110021907D01*
X170018881Y-110040586D01*
X169951518Y-110054273D01*
X169860235Y-110064060D01*
X169735231Y-110071041D01*
X169566704Y-110076309D01*
X169374634Y-110080396D01*
X169183108Y-110082567D01*
X169011522Y-110081713D01*
X168869971Y-110078112D01*
X168768551Y-110072040D01*
X168717356Y-110063775D01*
X168714511Y-110062275D01*
X168687515Y-110003594D01*
X168682654Y-109885629D01*
X168683535Y-109868477D01*
X168693170Y-109704605D01*
X169269315Y-109687895D01*
X169491604Y-109680342D01*
X169659490Y-109670824D01*
X169780519Y-109657121D01*
X169862240Y-109637014D01*
X169912199Y-109608285D01*
X169937944Y-109568715D01*
X169947023Y-109516084D01*
X169947683Y-109488456D01*
X169941197Y-109419151D01*
X169916254Y-109367959D01*
X169864621Y-109331682D01*
X169778069Y-109307122D01*
X169648365Y-109291082D01*
X169467280Y-109280363D01*
X169405609Y-109277856D01*
X169222004Y-109269359D01*
X169087355Y-109258717D01*
X168988671Y-109243884D01*
X168912957Y-109222817D01*
X168847221Y-109193468D01*
X168837946Y-109188513D01*
X168711187Y-109085477D01*
X168632259Y-108941524D01*
X168601999Y-108759294D01*
X168621243Y-108541423D01*
X168625622Y-108519231D01*
X168686156Y-108351654D01*
X168791116Y-108228076D01*
X168943229Y-108145894D01*
X169046171Y-108117764D01*
X169147059Y-108103493D01*
X169283819Y-108092991D01*
X169444824Y-108086185D01*
X169618445Y-108083004D01*
X169793052Y-108083375D01*
G36*
X165448475Y-106316323D02*
X165643109Y-106318606D01*
X165821822Y-106322616D01*
X165973325Y-106327950D01*
X166086326Y-106334202D01*
X166149534Y-106340969D01*
X166152005Y-106341499D01*
X166243723Y-106392386D01*
X166315486Y-106477545D01*
X166344875Y-106528994D01*
X166364558Y-106581183D01*
X166376108Y-106647876D01*
X166381103Y-106742837D01*
X166381117Y-106879829D01*
X166378602Y-107028882D01*
X166370000Y-107465395D01*
X166091219Y-107465395D01*
X166074933Y-107076796D01*
X166064225Y-106883179D01*
X166048355Y-106746747D01*
X166023357Y-106657852D01*
X165985265Y-106606848D01*
X165930115Y-106584089D01*
X165870597Y-106579737D01*
X165765975Y-106579737D01*
X165763831Y-106838750D01*
X165761958Y-106996131D01*
X165759137Y-107156648D01*
X165756087Y-107281579D01*
X165750487Y-107465395D01*
X165440731Y-107465395D01*
X165432077Y-107020775D01*
X165423422Y-106576155D01*
X165277199Y-106586301D01*
X165219028Y-106589405D01*
X165177561Y-106595890D01*
X165149897Y-106615560D01*
X165133136Y-106658221D01*
X165124380Y-106733679D01*
X165120728Y-106851740D01*
X165119280Y-107022208D01*
X165118540Y-107122829D01*
X165115487Y-107482105D01*
X164836707Y-107482105D01*
X164836707Y-106312368D01*
X165448475Y-106316323D01*
X165448475Y-106316323D01*
G37*
X165448475Y-106316323D02*
X165643109Y-106318606D01*
X165821822Y-106322616D01*
X165973325Y-106327950D01*
X166086326Y-106334202D01*
X166149534Y-106340969D01*
X166152005Y-106341499D01*
X166243723Y-106392386D01*
X166315486Y-106477545D01*
X166344875Y-106528994D01*
X166364558Y-106581183D01*
X166376108Y-106647876D01*
X166381103Y-106742837D01*
X166381117Y-106879829D01*
X166378602Y-107028882D01*
X166370000Y-107465395D01*
X166091219Y-107465395D01*
X166074933Y-107076796D01*
X166064225Y-106883179D01*
X166048355Y-106746747D01*
X166023357Y-106657852D01*
X165985265Y-106606848D01*
X165930115Y-106584089D01*
X165870597Y-106579737D01*
X165765975Y-106579737D01*
X165763831Y-106838750D01*
X165761958Y-106996131D01*
X165759137Y-107156648D01*
X165756087Y-107281579D01*
X165750487Y-107465395D01*
X165440731Y-107465395D01*
X165432077Y-107020775D01*
X165423422Y-106576155D01*
X165277199Y-106586301D01*
X165219028Y-106589405D01*
X165177561Y-106595890D01*
X165149897Y-106615560D01*
X165133136Y-106658221D01*
X165124380Y-106733679D01*
X165120728Y-106851740D01*
X165119280Y-107022208D01*
X165118540Y-107122829D01*
X165115487Y-107482105D01*
X164836707Y-107482105D01*
X164836707Y-106312368D01*
X165448475Y-106316323D01*
G36*
X166767472Y-106279459D02*
X166821364Y-106282637D01*
X166860858Y-106297194D01*
X166888109Y-106332074D01*
X166905272Y-106396223D01*
X166914503Y-106498588D01*
X166917957Y-106648113D01*
X166917790Y-106853745D01*
X166917513Y-106902157D01*
X166914113Y-107465395D01*
X166780293Y-107475291D01*
X166693306Y-107476306D01*
X166634344Y-107467068D01*
X166624395Y-107461365D01*
X166617062Y-107421563D01*
X166610759Y-107326492D01*
X166605924Y-107187722D01*
X166602997Y-107016822D01*
X166602317Y-106878532D01*
X166602733Y-106665100D01*
X166605653Y-106509423D01*
X166613581Y-106402416D01*
X166629022Y-106334992D01*
X166654482Y-106298064D01*
X166692464Y-106282546D01*
X166745475Y-106279352D01*
X166767472Y-106279459D01*
X166767472Y-106279459D01*
G37*
X166767472Y-106279459D02*
X166821364Y-106282637D01*
X166860858Y-106297194D01*
X166888109Y-106332074D01*
X166905272Y-106396223D01*
X166914503Y-106498588D01*
X166917957Y-106648113D01*
X166917790Y-106853745D01*
X166917513Y-106902157D01*
X166914113Y-107465395D01*
X166780293Y-107475291D01*
X166693306Y-107476306D01*
X166634344Y-107467068D01*
X166624395Y-107461365D01*
X166617062Y-107421563D01*
X166610759Y-107326492D01*
X166605924Y-107187722D01*
X166602997Y-107016822D01*
X166602317Y-106878532D01*
X166602733Y-106665100D01*
X166605653Y-106509423D01*
X166613581Y-106402416D01*
X166629022Y-106334992D01*
X166654482Y-106298064D01*
X166692464Y-106282546D01*
X166745475Y-106279352D01*
X166767472Y-106279459D01*
G36*
X167388478Y-105783037D02*
X167430885Y-105803271D01*
X167441026Y-105836118D01*
X167442335Y-105890670D01*
X167444190Y-105997133D01*
X167446352Y-106140582D01*
X167448583Y-106306091D01*
X167448770Y-106320784D01*
X167453365Y-106502685D01*
X167461631Y-106637295D01*
X167472978Y-106717799D01*
X167484817Y-106738548D01*
X167518396Y-106711923D01*
X167582838Y-106647568D01*
X167667001Y-106556881D01*
X167713597Y-106504539D01*
X167807546Y-106399002D01*
X167873928Y-106332905D01*
X167927643Y-106297020D01*
X167983590Y-106282120D01*
X168056670Y-106278977D01*
X168077865Y-106278947D01*
X168169844Y-106284556D01*
X168230184Y-106298991D01*
X168244024Y-106312268D01*
X168223880Y-106349133D01*
X168169562Y-106421925D01*
X168090246Y-106518811D01*
X168027195Y-106591874D01*
X167936360Y-106697328D01*
X167864236Y-106785401D01*
X167819940Y-106844699D01*
X167810365Y-106862803D01*
X167830000Y-106896034D01*
X167883241Y-106967309D01*
X167961600Y-107065633D01*
X168042221Y-107162993D01*
X168133208Y-107274964D01*
X168203671Y-107369120D01*
X168245977Y-107434739D01*
X168253888Y-107460322D01*
X168208866Y-107475342D01*
X168125639Y-107481457D01*
X168027333Y-107479198D01*
X167937075Y-107469096D01*
X167878024Y-107451702D01*
X167834948Y-107412793D01*
X167766077Y-107335922D01*
X167684101Y-107235509D01*
X167657393Y-107201044D01*
X167578550Y-107101195D01*
X167513646Y-107024963D01*
X167473110Y-106984370D01*
X167466309Y-106980789D01*
X167455901Y-107011152D01*
X167451120Y-107090356D01*
X167452636Y-107189671D01*
X167452697Y-107306246D01*
X167443825Y-107398404D01*
X167430841Y-107440329D01*
X167380934Y-107467913D01*
X167301585Y-107481284D01*
X167223522Y-107478049D01*
X167180528Y-107459824D01*
X167174849Y-107421586D01*
X167169768Y-107325810D01*
X167165508Y-107181798D01*
X167162297Y-106998854D01*
X167160360Y-106786280D01*
X167159878Y-106607588D01*
X167159878Y-105777632D01*
X167299268Y-105777632D01*
X167388478Y-105783037D01*
X167388478Y-105783037D01*
G37*
X167388478Y-105783037D02*
X167430885Y-105803271D01*
X167441026Y-105836118D01*
X167442335Y-105890670D01*
X167444190Y-105997133D01*
X167446352Y-106140582D01*
X167448583Y-106306091D01*
X167448770Y-106320784D01*
X167453365Y-106502685D01*
X167461631Y-106637295D01*
X167472978Y-106717799D01*
X167484817Y-106738548D01*
X167518396Y-106711923D01*
X167582838Y-106647568D01*
X167667001Y-106556881D01*
X167713597Y-106504539D01*
X167807546Y-106399002D01*
X167873928Y-106332905D01*
X167927643Y-106297020D01*
X167983590Y-106282120D01*
X168056670Y-106278977D01*
X168077865Y-106278947D01*
X168169844Y-106284556D01*
X168230184Y-106298991D01*
X168244024Y-106312268D01*
X168223880Y-106349133D01*
X168169562Y-106421925D01*
X168090246Y-106518811D01*
X168027195Y-106591874D01*
X167936360Y-106697328D01*
X167864236Y-106785401D01*
X167819940Y-106844699D01*
X167810365Y-106862803D01*
X167830000Y-106896034D01*
X167883241Y-106967309D01*
X167961600Y-107065633D01*
X168042221Y-107162993D01*
X168133208Y-107274964D01*
X168203671Y-107369120D01*
X168245977Y-107434739D01*
X168253888Y-107460322D01*
X168208866Y-107475342D01*
X168125639Y-107481457D01*
X168027333Y-107479198D01*
X167937075Y-107469096D01*
X167878024Y-107451702D01*
X167834948Y-107412793D01*
X167766077Y-107335922D01*
X167684101Y-107235509D01*
X167657393Y-107201044D01*
X167578550Y-107101195D01*
X167513646Y-107024963D01*
X167473110Y-106984370D01*
X167466309Y-106980789D01*
X167455901Y-107011152D01*
X167451120Y-107090356D01*
X167452636Y-107189671D01*
X167452697Y-107306246D01*
X167443825Y-107398404D01*
X167430841Y-107440329D01*
X167380934Y-107467913D01*
X167301585Y-107481284D01*
X167223522Y-107478049D01*
X167180528Y-107459824D01*
X167174849Y-107421586D01*
X167169768Y-107325810D01*
X167165508Y-107181798D01*
X167162297Y-106998854D01*
X167160360Y-106786280D01*
X167159878Y-106607588D01*
X167159878Y-105777632D01*
X167299268Y-105777632D01*
X167388478Y-105783037D01*
G36*
X168915233Y-106285658D02*
X168978110Y-106297734D01*
X169025870Y-106322135D01*
X169074103Y-106361947D01*
X169076708Y-106364308D01*
X169136959Y-106428660D01*
X169165369Y-106496164D01*
X169173197Y-106596175D01*
X169173292Y-106616129D01*
X169173292Y-106780263D01*
X169033902Y-106780263D01*
X168948153Y-106777254D01*
X168907537Y-106760463D01*
X168895265Y-106718245D01*
X168894512Y-106683576D01*
X168874947Y-106597866D01*
X168812070Y-106554484D01*
X168739991Y-106546316D01*
X168712828Y-106554197D01*
X168693844Y-106585864D01*
X168680043Y-106653349D01*
X168668427Y-106768685D01*
X168661591Y-106861092D01*
X168653029Y-107017613D01*
X168648938Y-107165402D01*
X168649845Y-107280346D01*
X168651715Y-107311593D01*
X168652564Y-107407775D01*
X168625038Y-107459423D01*
X168556595Y-107479628D01*
X168488323Y-107482105D01*
X168418208Y-107469011D01*
X168381643Y-107439046D01*
X168376998Y-107392466D01*
X168373969Y-107291267D01*
X168372695Y-107147651D01*
X168373316Y-106973821D01*
X168374872Y-106845822D01*
X168383414Y-106295658D01*
X168681769Y-106286140D01*
X168821649Y-106282822D01*
X168915233Y-106285658D01*
X168915233Y-106285658D01*
G37*
X168915233Y-106285658D02*
X168978110Y-106297734D01*
X169025870Y-106322135D01*
X169074103Y-106361947D01*
X169076708Y-106364308D01*
X169136959Y-106428660D01*
X169165369Y-106496164D01*
X169173197Y-106596175D01*
X169173292Y-106616129D01*
X169173292Y-106780263D01*
X169033902Y-106780263D01*
X168948153Y-106777254D01*
X168907537Y-106760463D01*
X168895265Y-106718245D01*
X168894512Y-106683576D01*
X168874947Y-106597866D01*
X168812070Y-106554484D01*
X168739991Y-106546316D01*
X168712828Y-106554197D01*
X168693844Y-106585864D01*
X168680043Y-106653349D01*
X168668427Y-106768685D01*
X168661591Y-106861092D01*
X168653029Y-107017613D01*
X168648938Y-107165402D01*
X168649845Y-107280346D01*
X168651715Y-107311593D01*
X168652564Y-107407775D01*
X168625038Y-107459423D01*
X168556595Y-107479628D01*
X168488323Y-107482105D01*
X168418208Y-107469011D01*
X168381643Y-107439046D01*
X168376998Y-107392466D01*
X168373969Y-107291267D01*
X168372695Y-107147651D01*
X168373316Y-106973821D01*
X168374872Y-106845822D01*
X168383414Y-106295658D01*
X168681769Y-106286140D01*
X168821649Y-106282822D01*
X168915233Y-106285658D01*
G36*
X169970493Y-106289378D02*
X170139207Y-106344339D01*
X170153329Y-106351689D01*
X170254375Y-106422294D01*
X170328896Y-106519856D01*
X170365807Y-106592198D01*
X170426472Y-106761540D01*
X170438006Y-106915489D01*
X170401194Y-107078244D01*
X170383141Y-107126654D01*
X170288418Y-107287364D01*
X170152297Y-107398894D01*
X169976454Y-107460112D01*
X169874377Y-107471488D01*
X169733125Y-107467661D01*
X169618163Y-107444975D01*
X169588598Y-107433100D01*
X169492809Y-107365483D01*
X169396633Y-107265440D01*
X169318607Y-107155138D01*
X169278437Y-107062186D01*
X169264861Y-106921184D01*
X169272362Y-106829315D01*
X169595590Y-106829315D01*
X169602287Y-106963811D01*
X169648480Y-107085825D01*
X169707122Y-107154957D01*
X169781094Y-107203061D01*
X169850479Y-107207210D01*
X169940838Y-107168389D01*
X169948302Y-107164259D01*
X170047019Y-107075436D01*
X170098169Y-106953205D01*
X170098814Y-106810520D01*
X170057517Y-106682962D01*
X169987492Y-106602473D01*
X169887186Y-106562699D01*
X169778470Y-106568284D01*
X169701545Y-106607401D01*
X169628604Y-106703468D01*
X169595590Y-106829315D01*
X169272362Y-106829315D01*
X169277919Y-106761259D01*
X169313334Y-106611790D01*
X169358223Y-106514293D01*
X169470872Y-106397697D01*
X169620810Y-106319230D01*
X169792522Y-106282067D01*
X169970493Y-106289378D01*
X169970493Y-106289378D01*
G37*
X169970493Y-106289378D02*
X170139207Y-106344339D01*
X170153329Y-106351689D01*
X170254375Y-106422294D01*
X170328896Y-106519856D01*
X170365807Y-106592198D01*
X170426472Y-106761540D01*
X170438006Y-106915489D01*
X170401194Y-107078244D01*
X170383141Y-107126654D01*
X170288418Y-107287364D01*
X170152297Y-107398894D01*
X169976454Y-107460112D01*
X169874377Y-107471488D01*
X169733125Y-107467661D01*
X169618163Y-107444975D01*
X169588598Y-107433100D01*
X169492809Y-107365483D01*
X169396633Y-107265440D01*
X169318607Y-107155138D01*
X169278437Y-107062186D01*
X169264861Y-106921184D01*
X169272362Y-106829315D01*
X169595590Y-106829315D01*
X169602287Y-106963811D01*
X169648480Y-107085825D01*
X169707122Y-107154957D01*
X169781094Y-107203061D01*
X169850479Y-107207210D01*
X169940838Y-107168389D01*
X169948302Y-107164259D01*
X170047019Y-107075436D01*
X170098169Y-106953205D01*
X170098814Y-106810520D01*
X170057517Y-106682962D01*
X169987492Y-106602473D01*
X169887186Y-106562699D01*
X169778470Y-106568284D01*
X169701545Y-106607401D01*
X169628604Y-106703468D01*
X169595590Y-106829315D01*
X169272362Y-106829315D01*
X169277919Y-106761259D01*
X169313334Y-106611790D01*
X169358223Y-106514293D01*
X169470872Y-106397697D01*
X169620810Y-106319230D01*
X169792522Y-106282067D01*
X169970493Y-106289378D01*
G36*
X166849376Y-105780495D02*
X166895916Y-105794789D01*
X166913070Y-105829067D01*
X166915945Y-105861184D01*
X166920590Y-105951376D01*
X166923689Y-106003224D01*
X166914667Y-106038922D01*
X166872686Y-106059425D01*
X166784349Y-106070519D01*
X166764939Y-106071812D01*
X166602317Y-106081914D01*
X166602317Y-105777632D01*
X166757195Y-105777632D01*
X166849376Y-105780495D01*
X166849376Y-105780495D01*
G37*
X166849376Y-105780495D02*
X166895916Y-105794789D01*
X166913070Y-105829067D01*
X166915945Y-105861184D01*
X166920590Y-105951376D01*
X166923689Y-106003224D01*
X166914667Y-106038922D01*
X166872686Y-106059425D01*
X166784349Y-106070519D01*
X166764939Y-106071812D01*
X166602317Y-106081914D01*
X166602317Y-105777632D01*
X166757195Y-105777632D01*
X166849376Y-105780495D01*
D16*
X123190000Y-143570000D02*
X166430000Y-143570000D01*
X166430000Y-143570000D02*
X166430000Y-140910000D01*
X166430000Y-140910000D02*
X123190000Y-140910000D01*
X123190000Y-140910000D02*
X123190000Y-143570000D01*
X121920000Y-143570000D02*
X120590000Y-143570000D01*
X120590000Y-143570000D02*
X120590000Y-142240000D01*
X173930000Y-158810000D02*
X176590000Y-158810000D01*
X173930000Y-146050000D02*
X173930000Y-158810000D01*
X176590000Y-146050000D02*
X176590000Y-158810000D01*
X173930000Y-146050000D02*
X176590000Y-146050000D01*
X173930000Y-144780000D02*
X173930000Y-143450000D01*
X173930000Y-143450000D02*
X175260000Y-143450000D01*
X123130000Y-113030000D02*
X123130000Y-130870000D01*
X123130000Y-130870000D02*
X125790000Y-130870000D01*
X125790000Y-130870000D02*
X125790000Y-113030000D01*
X125790000Y-113030000D02*
X123130000Y-113030000D01*
X123130000Y-111760000D02*
X123130000Y-110430000D01*
X123130000Y-110430000D02*
X124460000Y-110430000D01*
X145990000Y-113030000D02*
X145990000Y-130870000D01*
X145990000Y-130870000D02*
X148650000Y-130870000D01*
X148650000Y-130870000D02*
X148650000Y-113030000D01*
X148650000Y-113030000D02*
X145990000Y-113030000D01*
X145990000Y-111760000D02*
X145990000Y-110430000D01*
X145990000Y-110430000D02*
X147320000Y-110430000D01*
X152340000Y-113030000D02*
X152340000Y-130870000D01*
X152340000Y-130870000D02*
X155000000Y-130870000D01*
X155000000Y-130870000D02*
X155000000Y-113030000D01*
X155000000Y-113030000D02*
X152340000Y-113030000D01*
X152340000Y-111760000D02*
X152340000Y-110430000D01*
X152340000Y-110430000D02*
X153670000Y-110430000D01*
X175200000Y-113030000D02*
X175200000Y-130870000D01*
X175200000Y-130870000D02*
X177860000Y-130870000D01*
X177860000Y-130870000D02*
X177860000Y-113030000D01*
X177860000Y-113030000D02*
X175200000Y-113030000D01*
X175200000Y-111760000D02*
X175200000Y-110430000D01*
X175200000Y-110430000D02*
X176530000Y-110430000D01*
X128270000Y-161350000D02*
X166430000Y-161350000D01*
X166430000Y-161350000D02*
X166430000Y-158690000D01*
X166430000Y-158690000D02*
X128270000Y-158690000D01*
X128270000Y-158690000D02*
X128270000Y-161350000D01*
X127000000Y-161350000D02*
X125670000Y-161350000D01*
X125670000Y-161350000D02*
X125670000Y-160020000D01*
D15*
G36*
X134159776Y-105872655D02*
X134314564Y-105953214D01*
X134430799Y-106080175D01*
X134502155Y-106247562D01*
X134520575Y-106361960D01*
X134508313Y-106562580D01*
X134440901Y-106735070D01*
X134321477Y-106873941D01*
X134176544Y-106963667D01*
X134060600Y-107015937D01*
X134077926Y-107866447D01*
X134650975Y-107883158D01*
X135224024Y-107899868D01*
X135224024Y-108993139D01*
X135358205Y-109061434D01*
X135498807Y-109166498D01*
X135598239Y-109309693D01*
X135651868Y-109476791D01*
X135655064Y-109653564D01*
X135605468Y-109821093D01*
X135498054Y-109982968D01*
X135362738Y-110092581D01*
X135210162Y-110150002D01*
X135050966Y-110155303D01*
X134895788Y-110108552D01*
X134755270Y-110009822D01*
X134640051Y-109859181D01*
X134616985Y-109814555D01*
X134567883Y-109667904D01*
X134567422Y-109523605D01*
X134616315Y-109363227D01*
X134636221Y-109318700D01*
X134710587Y-109192112D01*
X134806806Y-109100655D01*
X134868092Y-109060798D01*
X135021790Y-108969342D01*
X135022236Y-108542779D01*
X135022683Y-108116216D01*
X133981462Y-108125016D01*
X132940242Y-108133816D01*
X132940957Y-108468026D01*
X132941256Y-108661503D01*
X132943028Y-108799558D01*
X132949033Y-108893597D01*
X132962028Y-108955026D01*
X132984773Y-108995252D01*
X133020024Y-109025681D01*
X133070541Y-109057718D01*
X133085884Y-109067318D01*
X133209314Y-109172024D01*
X133302713Y-109299022D01*
X133367017Y-109471947D01*
X133376831Y-109639805D01*
X133339590Y-109795555D01*
X133262727Y-109932157D01*
X133153677Y-110042572D01*
X133019874Y-110119758D01*
X132868753Y-110156676D01*
X132707747Y-110146285D01*
X132544292Y-110081546D01*
X132503566Y-110055805D01*
X132404080Y-109976115D01*
X132341754Y-109890081D01*
X132308757Y-109779537D01*
X132297262Y-109626319D01*
X132296829Y-109576157D01*
X132316743Y-109385034D01*
X132380381Y-109235646D01*
X132493584Y-109116839D01*
X132561446Y-109070868D01*
X132684024Y-108996884D01*
X132701316Y-108116214D01*
X130608658Y-108133816D01*
X130600029Y-108554188D01*
X130591399Y-108974561D01*
X130730080Y-109051518D01*
X130874684Y-109148755D01*
X130971001Y-109259043D01*
X131032616Y-109398711D01*
X131039881Y-109423843D01*
X131060898Y-109613709D01*
X131024396Y-109800532D01*
X130961069Y-109927614D01*
X130850022Y-110042200D01*
X130703037Y-110119026D01*
X130537164Y-110154960D01*
X130369453Y-110146873D01*
X130216955Y-110091634D01*
X130183579Y-110070355D01*
X130058338Y-109946297D01*
X129980984Y-109793956D01*
X129950469Y-109626031D01*
X129965740Y-109455224D01*
X130025747Y-109294235D01*
X130129439Y-109155765D01*
X130267446Y-109056648D01*
X130407317Y-108985710D01*
X130407317Y-107884633D01*
X130988109Y-107875540D01*
X131568902Y-107866447D01*
X131577565Y-107441192D01*
X131586229Y-107015937D01*
X131469573Y-106963347D01*
X131306496Y-106858529D01*
X131193518Y-106714629D01*
X131131819Y-106533576D01*
X131119756Y-106391386D01*
X131149199Y-106209667D01*
X131231657Y-106047693D01*
X131358320Y-105920918D01*
X131404742Y-105891430D01*
X131495287Y-105861893D01*
X131618428Y-105847286D01*
X131748278Y-105848102D01*
X131858949Y-105864836D01*
X131903926Y-105881905D01*
X132021228Y-105970679D01*
X132124373Y-106090719D01*
X132194477Y-106218588D01*
X132207023Y-106258030D01*
X132223244Y-106443812D01*
X132184497Y-106624012D01*
X132097189Y-106783957D01*
X131967726Y-106908975D01*
X131906936Y-106945227D01*
X131770243Y-107014553D01*
X131770243Y-107883158D01*
X133876585Y-107883158D01*
X133876585Y-107014553D01*
X133739937Y-106945250D01*
X133594231Y-106838396D01*
X133492055Y-106695620D01*
X133435675Y-106529938D01*
X133427357Y-106354369D01*
X133469368Y-106181931D01*
X133563975Y-106025641D01*
X133577206Y-106010528D01*
X133676284Y-105917859D01*
X133778055Y-105866354D01*
X133906195Y-105846072D01*
X133972762Y-105844474D01*
X134159776Y-105872655D01*
X134159776Y-105872655D01*
G37*
X134159776Y-105872655D02*
X134314564Y-105953214D01*
X134430799Y-106080175D01*
X134502155Y-106247562D01*
X134520575Y-106361960D01*
X134508313Y-106562580D01*
X134440901Y-106735070D01*
X134321477Y-106873941D01*
X134176544Y-106963667D01*
X134060600Y-107015937D01*
X134077926Y-107866447D01*
X134650975Y-107883158D01*
X135224024Y-107899868D01*
X135224024Y-108993139D01*
X135358205Y-109061434D01*
X135498807Y-109166498D01*
X135598239Y-109309693D01*
X135651868Y-109476791D01*
X135655064Y-109653564D01*
X135605468Y-109821093D01*
X135498054Y-109982968D01*
X135362738Y-110092581D01*
X135210162Y-110150002D01*
X135050966Y-110155303D01*
X134895788Y-110108552D01*
X134755270Y-110009822D01*
X134640051Y-109859181D01*
X134616985Y-109814555D01*
X134567883Y-109667904D01*
X134567422Y-109523605D01*
X134616315Y-109363227D01*
X134636221Y-109318700D01*
X134710587Y-109192112D01*
X134806806Y-109100655D01*
X134868092Y-109060798D01*
X135021790Y-108969342D01*
X135022236Y-108542779D01*
X135022683Y-108116216D01*
X133981462Y-108125016D01*
X132940242Y-108133816D01*
X132940957Y-108468026D01*
X132941256Y-108661503D01*
X132943028Y-108799558D01*
X132949033Y-108893597D01*
X132962028Y-108955026D01*
X132984773Y-108995252D01*
X133020024Y-109025681D01*
X133070541Y-109057718D01*
X133085884Y-109067318D01*
X133209314Y-109172024D01*
X133302713Y-109299022D01*
X133367017Y-109471947D01*
X133376831Y-109639805D01*
X133339590Y-109795555D01*
X133262727Y-109932157D01*
X133153677Y-110042572D01*
X133019874Y-110119758D01*
X132868753Y-110156676D01*
X132707747Y-110146285D01*
X132544292Y-110081546D01*
X132503566Y-110055805D01*
X132404080Y-109976115D01*
X132341754Y-109890081D01*
X132308757Y-109779537D01*
X132297262Y-109626319D01*
X132296829Y-109576157D01*
X132316743Y-109385034D01*
X132380381Y-109235646D01*
X132493584Y-109116839D01*
X132561446Y-109070868D01*
X132684024Y-108996884D01*
X132701316Y-108116214D01*
X130608658Y-108133816D01*
X130600029Y-108554188D01*
X130591399Y-108974561D01*
X130730080Y-109051518D01*
X130874684Y-109148755D01*
X130971001Y-109259043D01*
X131032616Y-109398711D01*
X131039881Y-109423843D01*
X131060898Y-109613709D01*
X131024396Y-109800532D01*
X130961069Y-109927614D01*
X130850022Y-110042200D01*
X130703037Y-110119026D01*
X130537164Y-110154960D01*
X130369453Y-110146873D01*
X130216955Y-110091634D01*
X130183579Y-110070355D01*
X130058338Y-109946297D01*
X129980984Y-109793956D01*
X129950469Y-109626031D01*
X129965740Y-109455224D01*
X130025747Y-109294235D01*
X130129439Y-109155765D01*
X130267446Y-109056648D01*
X130407317Y-108985710D01*
X130407317Y-107884633D01*
X130988109Y-107875540D01*
X131568902Y-107866447D01*
X131577565Y-107441192D01*
X131586229Y-107015937D01*
X131469573Y-106963347D01*
X131306496Y-106858529D01*
X131193518Y-106714629D01*
X131131819Y-106533576D01*
X131119756Y-106391386D01*
X131149199Y-106209667D01*
X131231657Y-106047693D01*
X131358320Y-105920918D01*
X131404742Y-105891430D01*
X131495287Y-105861893D01*
X131618428Y-105847286D01*
X131748278Y-105848102D01*
X131858949Y-105864836D01*
X131903926Y-105881905D01*
X132021228Y-105970679D01*
X132124373Y-106090719D01*
X132194477Y-106218588D01*
X132207023Y-106258030D01*
X132223244Y-106443812D01*
X132184497Y-106624012D01*
X132097189Y-106783957D01*
X131967726Y-106908975D01*
X131906936Y-106945227D01*
X131770243Y-107014553D01*
X131770243Y-107883158D01*
X133876585Y-107883158D01*
X133876585Y-107014553D01*
X133739937Y-106945250D01*
X133594231Y-106838396D01*
X133492055Y-106695620D01*
X133435675Y-106529938D01*
X133427357Y-106354369D01*
X133469368Y-106181931D01*
X133563975Y-106025641D01*
X133577206Y-106010528D01*
X133676284Y-105917859D01*
X133778055Y-105866354D01*
X133906195Y-105846072D01*
X133972762Y-105844474D01*
X134159776Y-105872655D01*
G36*
X137100125Y-108117584D02*
X137262581Y-108119643D01*
X137382789Y-108124223D01*
X137470601Y-108132258D01*
X137535865Y-108144688D01*
X137588432Y-108162450D01*
X137638152Y-108186481D01*
X137643262Y-108189219D01*
X137764070Y-108282085D01*
X137838415Y-108409472D01*
X137870447Y-108579651D01*
X137872439Y-108645973D01*
X137863320Y-108770014D01*
X137828994Y-108863590D01*
X137787754Y-108925001D01*
X137729624Y-108998362D01*
X137686079Y-109048124D01*
X137677598Y-109056029D01*
X137682454Y-109088529D01*
X137723068Y-109149455D01*
X137758376Y-109190512D01*
X137851963Y-109334376D01*
X137893074Y-109496656D01*
X137883078Y-109662709D01*
X137823346Y-109817897D01*
X137715247Y-109947577D01*
X137685355Y-109971052D01*
X137547266Y-110071116D01*
X136927718Y-110083418D01*
X136737593Y-110085942D01*
X136568741Y-110085806D01*
X136430897Y-110083212D01*
X136333800Y-110078363D01*
X136287184Y-110071461D01*
X136284939Y-110070053D01*
X136278990Y-110031263D01*
X136273605Y-109934263D01*
X136268985Y-109787684D01*
X136267043Y-109687895D01*
X136630458Y-109687895D01*
X137375238Y-109687895D01*
X137418768Y-109595987D01*
X137444685Y-109483209D01*
X137410859Y-109385114D01*
X137318700Y-109305701D01*
X137315784Y-109304058D01*
X137244511Y-109276226D01*
X137146616Y-109261664D01*
X137007717Y-109258728D01*
X136934735Y-109260532D01*
X136648902Y-109270132D01*
X136639680Y-109479013D01*
X136630458Y-109687895D01*
X136267043Y-109687895D01*
X136265334Y-109600157D01*
X136262853Y-109380314D01*
X136261746Y-109136784D01*
X136261707Y-109080746D01*
X136261707Y-108758573D01*
X136633861Y-108758573D01*
X136641791Y-108839788D01*
X136674137Y-108886785D01*
X136740815Y-108907572D01*
X136851742Y-108910159D01*
X136974269Y-108904750D01*
X137112830Y-108894404D01*
X137233206Y-108879575D01*
X137318458Y-108862637D01*
X137345221Y-108852733D01*
X137391701Y-108801213D01*
X137407442Y-108708463D01*
X137407609Y-108692442D01*
X137396097Y-108600659D01*
X137356748Y-108537199D01*
X137281840Y-108498604D01*
X137163646Y-108481415D01*
X136994443Y-108482173D01*
X136943708Y-108484737D01*
X136649977Y-108501447D01*
X136640430Y-108635132D01*
X136633861Y-108758573D01*
X136261707Y-108758573D01*
X136261707Y-108117105D01*
X136885570Y-108117105D01*
X137100125Y-108117584D01*
X137100125Y-108117584D01*
G37*
X137100125Y-108117584D02*
X137262581Y-108119643D01*
X137382789Y-108124223D01*
X137470601Y-108132258D01*
X137535865Y-108144688D01*
X137588432Y-108162450D01*
X137638152Y-108186481D01*
X137643262Y-108189219D01*
X137764070Y-108282085D01*
X137838415Y-108409472D01*
X137870447Y-108579651D01*
X137872439Y-108645973D01*
X137863320Y-108770014D01*
X137828994Y-108863590D01*
X137787754Y-108925001D01*
X137729624Y-108998362D01*
X137686079Y-109048124D01*
X137677598Y-109056029D01*
X137682454Y-109088529D01*
X137723068Y-109149455D01*
X137758376Y-109190512D01*
X137851963Y-109334376D01*
X137893074Y-109496656D01*
X137883078Y-109662709D01*
X137823346Y-109817897D01*
X137715247Y-109947577D01*
X137685355Y-109971052D01*
X137547266Y-110071116D01*
X136927718Y-110083418D01*
X136737593Y-110085942D01*
X136568741Y-110085806D01*
X136430897Y-110083212D01*
X136333800Y-110078363D01*
X136287184Y-110071461D01*
X136284939Y-110070053D01*
X136278990Y-110031263D01*
X136273605Y-109934263D01*
X136268985Y-109787684D01*
X136267043Y-109687895D01*
X136630458Y-109687895D01*
X137375238Y-109687895D01*
X137418768Y-109595987D01*
X137444685Y-109483209D01*
X137410859Y-109385114D01*
X137318700Y-109305701D01*
X137315784Y-109304058D01*
X137244511Y-109276226D01*
X137146616Y-109261664D01*
X137007717Y-109258728D01*
X136934735Y-109260532D01*
X136648902Y-109270132D01*
X136639680Y-109479013D01*
X136630458Y-109687895D01*
X136267043Y-109687895D01*
X136265334Y-109600157D01*
X136262853Y-109380314D01*
X136261746Y-109136784D01*
X136261707Y-109080746D01*
X136261707Y-108758573D01*
X136633861Y-108758573D01*
X136641791Y-108839788D01*
X136674137Y-108886785D01*
X136740815Y-108907572D01*
X136851742Y-108910159D01*
X136974269Y-108904750D01*
X137112830Y-108894404D01*
X137233206Y-108879575D01*
X137318458Y-108862637D01*
X137345221Y-108852733D01*
X137391701Y-108801213D01*
X137407442Y-108708463D01*
X137407609Y-108692442D01*
X137396097Y-108600659D01*
X137356748Y-108537199D01*
X137281840Y-108498604D01*
X137163646Y-108481415D01*
X136994443Y-108482173D01*
X136943708Y-108484737D01*
X136649977Y-108501447D01*
X136640430Y-108635132D01*
X136633861Y-108758573D01*
X136261707Y-108758573D01*
X136261707Y-108117105D01*
X136885570Y-108117105D01*
X137100125Y-108117584D01*
G36*
X139552865Y-108084196D02*
X139653627Y-108089676D01*
X139731840Y-108103110D01*
X139757250Y-108113264D01*
X139771107Y-108134993D01*
X139781152Y-108183482D01*
X139787679Y-108266215D01*
X139790981Y-108390680D01*
X139791353Y-108564361D01*
X139789088Y-108794744D01*
X139787732Y-108889791D01*
X139782848Y-109161377D01*
X139775575Y-109375143D01*
X139763248Y-109540110D01*
X139743203Y-109665298D01*
X139712774Y-109759729D01*
X139669297Y-109832425D01*
X139610107Y-109892405D01*
X139532538Y-109948692D01*
X139461770Y-109993252D01*
X139390036Y-110029577D01*
X139306005Y-110053338D01*
X139193176Y-110067725D01*
X139035047Y-110075928D01*
X139034024Y-110075962D01*
X138890701Y-110077786D01*
X138761092Y-110074259D01*
X138664066Y-110066132D01*
X138631341Y-110059949D01*
X138445765Y-109982708D01*
X138309257Y-109867680D01*
X138217330Y-109710679D01*
X138198035Y-109655619D01*
X138180843Y-109585855D01*
X138168562Y-109498469D01*
X138160709Y-109383294D01*
X138156803Y-109230163D01*
X138156363Y-109028909D01*
X138158304Y-108816538D01*
X138166707Y-108133816D01*
X138375792Y-108123933D01*
X138584878Y-108114051D01*
X138584878Y-108794047D01*
X138586072Y-109064262D01*
X138591518Y-109275412D01*
X138604008Y-109435255D01*
X138626333Y-109551549D01*
X138661286Y-109632052D01*
X138711660Y-109684522D01*
X138780246Y-109716719D01*
X138869836Y-109736399D01*
X138926929Y-109744425D01*
X139094985Y-109742518D01*
X139224012Y-109688706D01*
X139314244Y-109582789D01*
X139365915Y-109424566D01*
X139374596Y-109360309D01*
X139378726Y-109285929D01*
X139382469Y-109158784D01*
X139385544Y-108992951D01*
X139387674Y-108802506D01*
X139388459Y-108660197D01*
X139390243Y-108083684D01*
X139552865Y-108084196D01*
X139552865Y-108084196D01*
G37*
X139552865Y-108084196D02*
X139653627Y-108089676D01*
X139731840Y-108103110D01*
X139757250Y-108113264D01*
X139771107Y-108134993D01*
X139781152Y-108183482D01*
X139787679Y-108266215D01*
X139790981Y-108390680D01*
X139791353Y-108564361D01*
X139789088Y-108794744D01*
X139787732Y-108889791D01*
X139782848Y-109161377D01*
X139775575Y-109375143D01*
X139763248Y-109540110D01*
X139743203Y-109665298D01*
X139712774Y-109759729D01*
X139669297Y-109832425D01*
X139610107Y-109892405D01*
X139532538Y-109948692D01*
X139461770Y-109993252D01*
X139390036Y-110029577D01*
X139306005Y-110053338D01*
X139193176Y-110067725D01*
X139035047Y-110075928D01*
X139034024Y-110075962D01*
X138890701Y-110077786D01*
X138761092Y-110074259D01*
X138664066Y-110066132D01*
X138631341Y-110059949D01*
X138445765Y-109982708D01*
X138309257Y-109867680D01*
X138217330Y-109710679D01*
X138198035Y-109655619D01*
X138180843Y-109585855D01*
X138168562Y-109498469D01*
X138160709Y-109383294D01*
X138156803Y-109230163D01*
X138156363Y-109028909D01*
X138158304Y-108816538D01*
X138166707Y-108133816D01*
X138375792Y-108123933D01*
X138584878Y-108114051D01*
X138584878Y-108794047D01*
X138586072Y-109064262D01*
X138591518Y-109275412D01*
X138604008Y-109435255D01*
X138626333Y-109551549D01*
X138661286Y-109632052D01*
X138711660Y-109684522D01*
X138780246Y-109716719D01*
X138869836Y-109736399D01*
X138926929Y-109744425D01*
X139094985Y-109742518D01*
X139224012Y-109688706D01*
X139314244Y-109582789D01*
X139365915Y-109424566D01*
X139374596Y-109360309D01*
X139378726Y-109285929D01*
X139382469Y-109158784D01*
X139385544Y-108992951D01*
X139387674Y-108802506D01*
X139388459Y-108660197D01*
X139390243Y-108083684D01*
X139552865Y-108084196D01*
G36*
X141218052Y-108083375D02*
X141382017Y-108087224D01*
X141523711Y-108094479D01*
X141631505Y-108105068D01*
X141693771Y-108118918D01*
X141703399Y-108125460D01*
X141721441Y-108184086D01*
X141730247Y-108276800D01*
X141730423Y-108300921D01*
X141728902Y-108434605D01*
X141204224Y-108443797D01*
X141011731Y-108447577D01*
X140870705Y-108452190D01*
X140770668Y-108459200D01*
X140701140Y-108470171D01*
X140651640Y-108486667D01*
X140611689Y-108510252D01*
X140576968Y-108537406D01*
X140497714Y-108629465D01*
X140476203Y-108723318D01*
X140513614Y-108811453D01*
X140531036Y-108830478D01*
X140566933Y-108854730D01*
X140623218Y-108870955D01*
X140711078Y-108880575D01*
X140841702Y-108885009D01*
X140966618Y-108885789D01*
X141206918Y-108892546D01*
X141394250Y-108914288D01*
X141536458Y-108953229D01*
X141641384Y-109011579D01*
X141716870Y-109091550D01*
X141721718Y-109098716D01*
X141758157Y-109165324D01*
X141779272Y-109241454D01*
X141788815Y-109347360D01*
X141790638Y-109470658D01*
X141782121Y-109653387D01*
X141752160Y-109786431D01*
X141693623Y-109885137D01*
X141599382Y-109964854D01*
X141546061Y-109997142D01*
X141497128Y-110021907D01*
X141443881Y-110040586D01*
X141376518Y-110054273D01*
X141285235Y-110064060D01*
X141160231Y-110071041D01*
X140991704Y-110076309D01*
X140799634Y-110080396D01*
X140608108Y-110082567D01*
X140436522Y-110081713D01*
X140294971Y-110078112D01*
X140193551Y-110072040D01*
X140142356Y-110063775D01*
X140139511Y-110062275D01*
X140112515Y-110003594D01*
X140107654Y-109885629D01*
X140108535Y-109868477D01*
X140118170Y-109704605D01*
X140694315Y-109687895D01*
X140916604Y-109680342D01*
X141084490Y-109670824D01*
X141205519Y-109657121D01*
X141287240Y-109637014D01*
X141337199Y-109608285D01*
X141362944Y-109568715D01*
X141372023Y-109516084D01*
X141372683Y-109488456D01*
X141366197Y-109419151D01*
X141341254Y-109367959D01*
X141289621Y-109331682D01*
X141203069Y-109307122D01*
X141073365Y-109291082D01*
X140892280Y-109280363D01*
X140830609Y-109277856D01*
X140647004Y-109269359D01*
X140512355Y-109258717D01*
X140413671Y-109243884D01*
X140337957Y-109222817D01*
X140272221Y-109193468D01*
X140262946Y-109188513D01*
X140136187Y-109085477D01*
X140057259Y-108941524D01*
X140026999Y-108759294D01*
X140046243Y-108541423D01*
X140050622Y-108519231D01*
X140111156Y-108351654D01*
X140216116Y-108228076D01*
X140368229Y-108145894D01*
X140471171Y-108117764D01*
X140572059Y-108103493D01*
X140708819Y-108092991D01*
X140869824Y-108086185D01*
X141043445Y-108083004D01*
X141218052Y-108083375D01*
X141218052Y-108083375D01*
G37*
X141218052Y-108083375D02*
X141382017Y-108087224D01*
X141523711Y-108094479D01*
X141631505Y-108105068D01*
X141693771Y-108118918D01*
X141703399Y-108125460D01*
X141721441Y-108184086D01*
X141730247Y-108276800D01*
X141730423Y-108300921D01*
X141728902Y-108434605D01*
X141204224Y-108443797D01*
X141011731Y-108447577D01*
X140870705Y-108452190D01*
X140770668Y-108459200D01*
X140701140Y-108470171D01*
X140651640Y-108486667D01*
X140611689Y-108510252D01*
X140576968Y-108537406D01*
X140497714Y-108629465D01*
X140476203Y-108723318D01*
X140513614Y-108811453D01*
X140531036Y-108830478D01*
X140566933Y-108854730D01*
X140623218Y-108870955D01*
X140711078Y-108880575D01*
X140841702Y-108885009D01*
X140966618Y-108885789D01*
X141206918Y-108892546D01*
X141394250Y-108914288D01*
X141536458Y-108953229D01*
X141641384Y-109011579D01*
X141716870Y-109091550D01*
X141721718Y-109098716D01*
X141758157Y-109165324D01*
X141779272Y-109241454D01*
X141788815Y-109347360D01*
X141790638Y-109470658D01*
X141782121Y-109653387D01*
X141752160Y-109786431D01*
X141693623Y-109885137D01*
X141599382Y-109964854D01*
X141546061Y-109997142D01*
X141497128Y-110021907D01*
X141443881Y-110040586D01*
X141376518Y-110054273D01*
X141285235Y-110064060D01*
X141160231Y-110071041D01*
X140991704Y-110076309D01*
X140799634Y-110080396D01*
X140608108Y-110082567D01*
X140436522Y-110081713D01*
X140294971Y-110078112D01*
X140193551Y-110072040D01*
X140142356Y-110063775D01*
X140139511Y-110062275D01*
X140112515Y-110003594D01*
X140107654Y-109885629D01*
X140108535Y-109868477D01*
X140118170Y-109704605D01*
X140694315Y-109687895D01*
X140916604Y-109680342D01*
X141084490Y-109670824D01*
X141205519Y-109657121D01*
X141287240Y-109637014D01*
X141337199Y-109608285D01*
X141362944Y-109568715D01*
X141372023Y-109516084D01*
X141372683Y-109488456D01*
X141366197Y-109419151D01*
X141341254Y-109367959D01*
X141289621Y-109331682D01*
X141203069Y-109307122D01*
X141073365Y-109291082D01*
X140892280Y-109280363D01*
X140830609Y-109277856D01*
X140647004Y-109269359D01*
X140512355Y-109258717D01*
X140413671Y-109243884D01*
X140337957Y-109222817D01*
X140272221Y-109193468D01*
X140262946Y-109188513D01*
X140136187Y-109085477D01*
X140057259Y-108941524D01*
X140026999Y-108759294D01*
X140046243Y-108541423D01*
X140050622Y-108519231D01*
X140111156Y-108351654D01*
X140216116Y-108228076D01*
X140368229Y-108145894D01*
X140471171Y-108117764D01*
X140572059Y-108103493D01*
X140708819Y-108092991D01*
X140869824Y-108086185D01*
X141043445Y-108083004D01*
X141218052Y-108083375D01*
G36*
X136873475Y-106316323D02*
X137068109Y-106318606D01*
X137246822Y-106322616D01*
X137398325Y-106327950D01*
X137511326Y-106334202D01*
X137574534Y-106340969D01*
X137577005Y-106341499D01*
X137668723Y-106392386D01*
X137740486Y-106477545D01*
X137769875Y-106528994D01*
X137789558Y-106581183D01*
X137801108Y-106647876D01*
X137806103Y-106742837D01*
X137806117Y-106879829D01*
X137803602Y-107028882D01*
X137795000Y-107465395D01*
X137516219Y-107465395D01*
X137499933Y-107076796D01*
X137489225Y-106883179D01*
X137473355Y-106746747D01*
X137448357Y-106657852D01*
X137410265Y-106606848D01*
X137355115Y-106584089D01*
X137295597Y-106579737D01*
X137190975Y-106579737D01*
X137188831Y-106838750D01*
X137186958Y-106996131D01*
X137184137Y-107156648D01*
X137181087Y-107281579D01*
X137175487Y-107465395D01*
X136865731Y-107465395D01*
X136857077Y-107020775D01*
X136848422Y-106576155D01*
X136702199Y-106586301D01*
X136644028Y-106589405D01*
X136602561Y-106595890D01*
X136574897Y-106615560D01*
X136558136Y-106658221D01*
X136549380Y-106733679D01*
X136545728Y-106851740D01*
X136544280Y-107022208D01*
X136543540Y-107122829D01*
X136540487Y-107482105D01*
X136261707Y-107482105D01*
X136261707Y-106312368D01*
X136873475Y-106316323D01*
X136873475Y-106316323D01*
G37*
X136873475Y-106316323D02*
X137068109Y-106318606D01*
X137246822Y-106322616D01*
X137398325Y-106327950D01*
X137511326Y-106334202D01*
X137574534Y-106340969D01*
X137577005Y-106341499D01*
X137668723Y-106392386D01*
X137740486Y-106477545D01*
X137769875Y-106528994D01*
X137789558Y-106581183D01*
X137801108Y-106647876D01*
X137806103Y-106742837D01*
X137806117Y-106879829D01*
X137803602Y-107028882D01*
X137795000Y-107465395D01*
X137516219Y-107465395D01*
X137499933Y-107076796D01*
X137489225Y-106883179D01*
X137473355Y-106746747D01*
X137448357Y-106657852D01*
X137410265Y-106606848D01*
X137355115Y-106584089D01*
X137295597Y-106579737D01*
X137190975Y-106579737D01*
X137188831Y-106838750D01*
X137186958Y-106996131D01*
X137184137Y-107156648D01*
X137181087Y-107281579D01*
X137175487Y-107465395D01*
X136865731Y-107465395D01*
X136857077Y-107020775D01*
X136848422Y-106576155D01*
X136702199Y-106586301D01*
X136644028Y-106589405D01*
X136602561Y-106595890D01*
X136574897Y-106615560D01*
X136558136Y-106658221D01*
X136549380Y-106733679D01*
X136545728Y-106851740D01*
X136544280Y-107022208D01*
X136543540Y-107122829D01*
X136540487Y-107482105D01*
X136261707Y-107482105D01*
X136261707Y-106312368D01*
X136873475Y-106316323D01*
G36*
X138192472Y-106279459D02*
X138246364Y-106282637D01*
X138285858Y-106297194D01*
X138313109Y-106332074D01*
X138330272Y-106396223D01*
X138339503Y-106498588D01*
X138342957Y-106648113D01*
X138342790Y-106853745D01*
X138342513Y-106902157D01*
X138339113Y-107465395D01*
X138205293Y-107475291D01*
X138118306Y-107476306D01*
X138059344Y-107467068D01*
X138049395Y-107461365D01*
X138042062Y-107421563D01*
X138035759Y-107326492D01*
X138030924Y-107187722D01*
X138027997Y-107016822D01*
X138027317Y-106878532D01*
X138027733Y-106665100D01*
X138030653Y-106509423D01*
X138038581Y-106402416D01*
X138054022Y-106334992D01*
X138079482Y-106298064D01*
X138117464Y-106282546D01*
X138170475Y-106279352D01*
X138192472Y-106279459D01*
X138192472Y-106279459D01*
G37*
X138192472Y-106279459D02*
X138246364Y-106282637D01*
X138285858Y-106297194D01*
X138313109Y-106332074D01*
X138330272Y-106396223D01*
X138339503Y-106498588D01*
X138342957Y-106648113D01*
X138342790Y-106853745D01*
X138342513Y-106902157D01*
X138339113Y-107465395D01*
X138205293Y-107475291D01*
X138118306Y-107476306D01*
X138059344Y-107467068D01*
X138049395Y-107461365D01*
X138042062Y-107421563D01*
X138035759Y-107326492D01*
X138030924Y-107187722D01*
X138027997Y-107016822D01*
X138027317Y-106878532D01*
X138027733Y-106665100D01*
X138030653Y-106509423D01*
X138038581Y-106402416D01*
X138054022Y-106334992D01*
X138079482Y-106298064D01*
X138117464Y-106282546D01*
X138170475Y-106279352D01*
X138192472Y-106279459D01*
G36*
X138813478Y-105783037D02*
X138855885Y-105803271D01*
X138866026Y-105836118D01*
X138867335Y-105890670D01*
X138869190Y-105997133D01*
X138871352Y-106140582D01*
X138873583Y-106306091D01*
X138873770Y-106320784D01*
X138878365Y-106502685D01*
X138886631Y-106637295D01*
X138897978Y-106717799D01*
X138909817Y-106738548D01*
X138943396Y-106711923D01*
X139007838Y-106647568D01*
X139092001Y-106556881D01*
X139138597Y-106504539D01*
X139232546Y-106399002D01*
X139298928Y-106332905D01*
X139352643Y-106297020D01*
X139408590Y-106282120D01*
X139481670Y-106278977D01*
X139502865Y-106278947D01*
X139594844Y-106284556D01*
X139655184Y-106298991D01*
X139669024Y-106312268D01*
X139648880Y-106349133D01*
X139594562Y-106421925D01*
X139515246Y-106518811D01*
X139452195Y-106591874D01*
X139361360Y-106697328D01*
X139289236Y-106785401D01*
X139244940Y-106844699D01*
X139235365Y-106862803D01*
X139255000Y-106896034D01*
X139308241Y-106967309D01*
X139386600Y-107065633D01*
X139467221Y-107162993D01*
X139558208Y-107274964D01*
X139628671Y-107369120D01*
X139670977Y-107434739D01*
X139678888Y-107460322D01*
X139633866Y-107475342D01*
X139550639Y-107481457D01*
X139452333Y-107479198D01*
X139362075Y-107469096D01*
X139303024Y-107451702D01*
X139259948Y-107412793D01*
X139191077Y-107335922D01*
X139109101Y-107235509D01*
X139082393Y-107201044D01*
X139003550Y-107101195D01*
X138938646Y-107024963D01*
X138898110Y-106984370D01*
X138891309Y-106980789D01*
X138880901Y-107011152D01*
X138876120Y-107090356D01*
X138877636Y-107189671D01*
X138877697Y-107306246D01*
X138868825Y-107398404D01*
X138855841Y-107440329D01*
X138805934Y-107467913D01*
X138726585Y-107481284D01*
X138648522Y-107478049D01*
X138605528Y-107459824D01*
X138599849Y-107421586D01*
X138594768Y-107325810D01*
X138590508Y-107181798D01*
X138587297Y-106998854D01*
X138585360Y-106786280D01*
X138584878Y-106607588D01*
X138584878Y-105777632D01*
X138724268Y-105777632D01*
X138813478Y-105783037D01*
X138813478Y-105783037D01*
G37*
X138813478Y-105783037D02*
X138855885Y-105803271D01*
X138866026Y-105836118D01*
X138867335Y-105890670D01*
X138869190Y-105997133D01*
X138871352Y-106140582D01*
X138873583Y-106306091D01*
X138873770Y-106320784D01*
X138878365Y-106502685D01*
X138886631Y-106637295D01*
X138897978Y-106717799D01*
X138909817Y-106738548D01*
X138943396Y-106711923D01*
X139007838Y-106647568D01*
X139092001Y-106556881D01*
X139138597Y-106504539D01*
X139232546Y-106399002D01*
X139298928Y-106332905D01*
X139352643Y-106297020D01*
X139408590Y-106282120D01*
X139481670Y-106278977D01*
X139502865Y-106278947D01*
X139594844Y-106284556D01*
X139655184Y-106298991D01*
X139669024Y-106312268D01*
X139648880Y-106349133D01*
X139594562Y-106421925D01*
X139515246Y-106518811D01*
X139452195Y-106591874D01*
X139361360Y-106697328D01*
X139289236Y-106785401D01*
X139244940Y-106844699D01*
X139235365Y-106862803D01*
X139255000Y-106896034D01*
X139308241Y-106967309D01*
X139386600Y-107065633D01*
X139467221Y-107162993D01*
X139558208Y-107274964D01*
X139628671Y-107369120D01*
X139670977Y-107434739D01*
X139678888Y-107460322D01*
X139633866Y-107475342D01*
X139550639Y-107481457D01*
X139452333Y-107479198D01*
X139362075Y-107469096D01*
X139303024Y-107451702D01*
X139259948Y-107412793D01*
X139191077Y-107335922D01*
X139109101Y-107235509D01*
X139082393Y-107201044D01*
X139003550Y-107101195D01*
X138938646Y-107024963D01*
X138898110Y-106984370D01*
X138891309Y-106980789D01*
X138880901Y-107011152D01*
X138876120Y-107090356D01*
X138877636Y-107189671D01*
X138877697Y-107306246D01*
X138868825Y-107398404D01*
X138855841Y-107440329D01*
X138805934Y-107467913D01*
X138726585Y-107481284D01*
X138648522Y-107478049D01*
X138605528Y-107459824D01*
X138599849Y-107421586D01*
X138594768Y-107325810D01*
X138590508Y-107181798D01*
X138587297Y-106998854D01*
X138585360Y-106786280D01*
X138584878Y-106607588D01*
X138584878Y-105777632D01*
X138724268Y-105777632D01*
X138813478Y-105783037D01*
G36*
X140340233Y-106285658D02*
X140403110Y-106297734D01*
X140450870Y-106322135D01*
X140499103Y-106361947D01*
X140501708Y-106364308D01*
X140561959Y-106428660D01*
X140590369Y-106496164D01*
X140598197Y-106596175D01*
X140598292Y-106616129D01*
X140598292Y-106780263D01*
X140458902Y-106780263D01*
X140373153Y-106777254D01*
X140332537Y-106760463D01*
X140320265Y-106718245D01*
X140319512Y-106683576D01*
X140299947Y-106597866D01*
X140237070Y-106554484D01*
X140164991Y-106546316D01*
X140137828Y-106554197D01*
X140118844Y-106585864D01*
X140105043Y-106653349D01*
X140093427Y-106768685D01*
X140086591Y-106861092D01*
X140078029Y-107017613D01*
X140073938Y-107165402D01*
X140074845Y-107280346D01*
X140076715Y-107311593D01*
X140077564Y-107407775D01*
X140050038Y-107459423D01*
X139981595Y-107479628D01*
X139913323Y-107482105D01*
X139843208Y-107469011D01*
X139806643Y-107439046D01*
X139801998Y-107392466D01*
X139798969Y-107291267D01*
X139797695Y-107147651D01*
X139798316Y-106973821D01*
X139799872Y-106845822D01*
X139808414Y-106295658D01*
X140106769Y-106286140D01*
X140246649Y-106282822D01*
X140340233Y-106285658D01*
X140340233Y-106285658D01*
G37*
X140340233Y-106285658D02*
X140403110Y-106297734D01*
X140450870Y-106322135D01*
X140499103Y-106361947D01*
X140501708Y-106364308D01*
X140561959Y-106428660D01*
X140590369Y-106496164D01*
X140598197Y-106596175D01*
X140598292Y-106616129D01*
X140598292Y-106780263D01*
X140458902Y-106780263D01*
X140373153Y-106777254D01*
X140332537Y-106760463D01*
X140320265Y-106718245D01*
X140319512Y-106683576D01*
X140299947Y-106597866D01*
X140237070Y-106554484D01*
X140164991Y-106546316D01*
X140137828Y-106554197D01*
X140118844Y-106585864D01*
X140105043Y-106653349D01*
X140093427Y-106768685D01*
X140086591Y-106861092D01*
X140078029Y-107017613D01*
X140073938Y-107165402D01*
X140074845Y-107280346D01*
X140076715Y-107311593D01*
X140077564Y-107407775D01*
X140050038Y-107459423D01*
X139981595Y-107479628D01*
X139913323Y-107482105D01*
X139843208Y-107469011D01*
X139806643Y-107439046D01*
X139801998Y-107392466D01*
X139798969Y-107291267D01*
X139797695Y-107147651D01*
X139798316Y-106973821D01*
X139799872Y-106845822D01*
X139808414Y-106295658D01*
X140106769Y-106286140D01*
X140246649Y-106282822D01*
X140340233Y-106285658D01*
G36*
X141395493Y-106289378D02*
X141564207Y-106344339D01*
X141578329Y-106351689D01*
X141679375Y-106422294D01*
X141753896Y-106519856D01*
X141790807Y-106592198D01*
X141851472Y-106761540D01*
X141863006Y-106915489D01*
X141826194Y-107078244D01*
X141808141Y-107126654D01*
X141713418Y-107287364D01*
X141577297Y-107398894D01*
X141401454Y-107460112D01*
X141299377Y-107471488D01*
X141158125Y-107467661D01*
X141043163Y-107444975D01*
X141013598Y-107433100D01*
X140917809Y-107365483D01*
X140821633Y-107265440D01*
X140743607Y-107155138D01*
X140703437Y-107062186D01*
X140689861Y-106921184D01*
X140697362Y-106829315D01*
X141020590Y-106829315D01*
X141027287Y-106963811D01*
X141073480Y-107085825D01*
X141132122Y-107154957D01*
X141206094Y-107203061D01*
X141275479Y-107207210D01*
X141365838Y-107168389D01*
X141373302Y-107164259D01*
X141472019Y-107075436D01*
X141523169Y-106953205D01*
X141523814Y-106810520D01*
X141482517Y-106682962D01*
X141412492Y-106602473D01*
X141312186Y-106562699D01*
X141203470Y-106568284D01*
X141126545Y-106607401D01*
X141053604Y-106703468D01*
X141020590Y-106829315D01*
X140697362Y-106829315D01*
X140702919Y-106761259D01*
X140738334Y-106611790D01*
X140783223Y-106514293D01*
X140895872Y-106397697D01*
X141045810Y-106319230D01*
X141217522Y-106282067D01*
X141395493Y-106289378D01*
X141395493Y-106289378D01*
G37*
X141395493Y-106289378D02*
X141564207Y-106344339D01*
X141578329Y-106351689D01*
X141679375Y-106422294D01*
X141753896Y-106519856D01*
X141790807Y-106592198D01*
X141851472Y-106761540D01*
X141863006Y-106915489D01*
X141826194Y-107078244D01*
X141808141Y-107126654D01*
X141713418Y-107287364D01*
X141577297Y-107398894D01*
X141401454Y-107460112D01*
X141299377Y-107471488D01*
X141158125Y-107467661D01*
X141043163Y-107444975D01*
X141013598Y-107433100D01*
X140917809Y-107365483D01*
X140821633Y-107265440D01*
X140743607Y-107155138D01*
X140703437Y-107062186D01*
X140689861Y-106921184D01*
X140697362Y-106829315D01*
X141020590Y-106829315D01*
X141027287Y-106963811D01*
X141073480Y-107085825D01*
X141132122Y-107154957D01*
X141206094Y-107203061D01*
X141275479Y-107207210D01*
X141365838Y-107168389D01*
X141373302Y-107164259D01*
X141472019Y-107075436D01*
X141523169Y-106953205D01*
X141523814Y-106810520D01*
X141482517Y-106682962D01*
X141412492Y-106602473D01*
X141312186Y-106562699D01*
X141203470Y-106568284D01*
X141126545Y-106607401D01*
X141053604Y-106703468D01*
X141020590Y-106829315D01*
X140697362Y-106829315D01*
X140702919Y-106761259D01*
X140738334Y-106611790D01*
X140783223Y-106514293D01*
X140895872Y-106397697D01*
X141045810Y-106319230D01*
X141217522Y-106282067D01*
X141395493Y-106289378D01*
G36*
X138274376Y-105780495D02*
X138320916Y-105794789D01*
X138338070Y-105829067D01*
X138340945Y-105861184D01*
X138345590Y-105951376D01*
X138348689Y-106003224D01*
X138339667Y-106038922D01*
X138297686Y-106059425D01*
X138209349Y-106070519D01*
X138189939Y-106071812D01*
X138027317Y-106081914D01*
X138027317Y-105777632D01*
X138182195Y-105777632D01*
X138274376Y-105780495D01*
X138274376Y-105780495D01*
G37*
X138274376Y-105780495D02*
X138320916Y-105794789D01*
X138338070Y-105829067D01*
X138340945Y-105861184D01*
X138345590Y-105951376D01*
X138348689Y-106003224D01*
X138339667Y-106038922D01*
X138297686Y-106059425D01*
X138209349Y-106070519D01*
X138189939Y-106071812D01*
X138027317Y-106081914D01*
X138027317Y-105777632D01*
X138182195Y-105777632D01*
X138274376Y-105780495D01*
D10*
X123721905Y-109882381D02*
X123721905Y-108882381D01*
X124102858Y-108882381D01*
X124198096Y-108930000D01*
X124245715Y-108977619D01*
X124293334Y-109072857D01*
X124293334Y-109215714D01*
X124245715Y-109310952D01*
X124198096Y-109358571D01*
X124102858Y-109406190D01*
X123721905Y-109406190D01*
X124626667Y-108882381D02*
X125245715Y-108882381D01*
X124912381Y-109263333D01*
X125055239Y-109263333D01*
X125150477Y-109310952D01*
X125198096Y-109358571D01*
X125245715Y-109453810D01*
X125245715Y-109691905D01*
X125198096Y-109787143D01*
X125150477Y-109834762D01*
X125055239Y-109882381D01*
X124769524Y-109882381D01*
X124674286Y-109834762D01*
X124626667Y-109787143D01*
X146581905Y-109882381D02*
X146581905Y-108882381D01*
X146962858Y-108882381D01*
X147058096Y-108930000D01*
X147105715Y-108977619D01*
X147153334Y-109072857D01*
X147153334Y-109215714D01*
X147105715Y-109310952D01*
X147058096Y-109358571D01*
X146962858Y-109406190D01*
X146581905Y-109406190D01*
X148010477Y-109215714D02*
X148010477Y-109882381D01*
X147772381Y-108834762D02*
X147534286Y-109549048D01*
X148153334Y-109549048D01*
X152931905Y-109882381D02*
X152931905Y-108882381D01*
X153312858Y-108882381D01*
X153408096Y-108930000D01*
X153455715Y-108977619D01*
X153503334Y-109072857D01*
X153503334Y-109215714D01*
X153455715Y-109310952D01*
X153408096Y-109358571D01*
X153312858Y-109406190D01*
X152931905Y-109406190D01*
X154408096Y-108882381D02*
X153931905Y-108882381D01*
X153884286Y-109358571D01*
X153931905Y-109310952D01*
X154027143Y-109263333D01*
X154265239Y-109263333D01*
X154360477Y-109310952D01*
X154408096Y-109358571D01*
X154455715Y-109453810D01*
X154455715Y-109691905D01*
X154408096Y-109787143D01*
X154360477Y-109834762D01*
X154265239Y-109882381D01*
X154027143Y-109882381D01*
X153931905Y-109834762D01*
X153884286Y-109787143D01*
X175791905Y-109882381D02*
X175791905Y-108882381D01*
X176172858Y-108882381D01*
X176268096Y-108930000D01*
X176315715Y-108977619D01*
X176363334Y-109072857D01*
X176363334Y-109215714D01*
X176315715Y-109310952D01*
X176268096Y-109358571D01*
X176172858Y-109406190D01*
X175791905Y-109406190D01*
X177220477Y-108882381D02*
X177030000Y-108882381D01*
X176934762Y-108930000D01*
X176887143Y-108977619D01*
X176791905Y-109120476D01*
X176744286Y-109310952D01*
X176744286Y-109691905D01*
X176791905Y-109787143D01*
X176839524Y-109834762D01*
X176934762Y-109882381D01*
X177125239Y-109882381D01*
X177220477Y-109834762D01*
X177268096Y-109787143D01*
X177315715Y-109691905D01*
X177315715Y-109453810D01*
X177268096Y-109358571D01*
X177220477Y-109310952D01*
X177125239Y-109263333D01*
X176934762Y-109263333D01*
X176839524Y-109310952D01*
X176791905Y-109358571D01*
X176744286Y-109453810D01*
M02*
