M48
;DRILL file {KiCad 4.0.7} date 03/29/18 14:39:04
;FORMAT={-:-/ absolute / inch / decimal}
FMAT,2
INCH,TZ
T1C0.039
%
G90
G05
M72
T1
X4.8Y-5.6
X4.9Y-4.4
X4.9Y-4.5
X4.9Y-4.6
X4.9Y-4.7
X4.9Y-4.8
X4.9Y-4.9
X4.9Y-5.
X4.9Y-5.1
X4.9Y-5.6
X5.Y-5.6
X5.Y-6.3
X5.1Y-5.6
X5.1Y-6.3
X5.2Y-5.6
X5.2Y-6.3
X5.3Y-5.6
X5.3Y-6.3
X5.4Y-5.6
X5.4Y-6.3
X5.5Y-5.6
X5.5Y-6.3
X5.6Y-5.6
X5.6Y-6.3
X5.7Y-5.6
X5.7Y-6.3
X5.8Y-4.4
X5.8Y-4.5
X5.8Y-4.6
X5.8Y-4.7
X5.8Y-4.8
X5.8Y-4.9
X5.8Y-5.
X5.8Y-5.1
X5.8Y-5.6
X5.8Y-6.3
X5.9Y-5.6
X5.9Y-6.3
X6.Y-5.6
X6.Y-6.3
X6.05Y-4.4
X6.05Y-4.5
X6.05Y-4.6
X6.05Y-4.7
X6.05Y-4.8
X6.05Y-4.9
X6.05Y-5.
X6.05Y-5.1
X6.1Y-5.6
X6.1Y-6.3
X6.2Y-5.6
X6.2Y-6.3
X6.3Y-5.6
X6.3Y-6.3
X6.4Y-5.6
X6.4Y-6.3
X6.5Y-5.6
X6.5Y-6.3
X6.9Y-5.7
X6.9Y-5.8
X6.9Y-5.9
X6.9Y-6.
X6.9Y-6.1
X6.9Y-6.2
X6.95Y-4.4
X6.95Y-4.5
X6.95Y-4.6
X6.95Y-4.7
X6.95Y-4.8
X6.95Y-4.9
X6.95Y-5.
X6.95Y-5.1
T0
M30
