%TF.GenerationSoftware,KiCad,Pcbnew,4.0.7*%
%TF.CreationDate,2018-03-29T14:35:10+02:00*%
%TF.ProjectId,mikrobus-board,6D696B726F6275732D626F6172642E6B,rev?*%
%TF.FileFunction,Copper,L2,Bot,Signal*%
%FSLAX46Y46*%
G04 Gerber Fmt 4.6, Leading zero omitted, Abs format (unit mm)*
G04 Created by KiCad (PCBNEW 4.0.7) date 03/29/18 14:35:10*
%MOMM*%
%LPD*%
G01*
G04 APERTURE LIST*
%ADD10C,0.150000*%
%ADD11C,0.100000*%
%ADD12R,1.700000X1.700000*%
%ADD13O,1.700000X1.700000*%
%ADD14C,0.380000*%
%ADD15C,0.250000*%
%ADD16C,0.254000*%
G04 APERTURE END LIST*
D10*
D11*
X184150000Y-100330000D02*
X184150000Y-165100000D01*
X184150000Y-165100000D02*
X182880000Y-165100000D01*
X182880000Y-100330000D02*
X184150000Y-100330000D01*
X180340000Y-100330000D02*
X182880000Y-100330000D01*
X116840000Y-100330000D02*
X116840000Y-101600000D01*
X119380000Y-100330000D02*
X116840000Y-100330000D01*
X116840000Y-101600000D02*
X116840000Y-104140000D01*
X180340000Y-165100000D02*
X182880000Y-165100000D01*
X116840000Y-106680000D02*
X116840000Y-104140000D01*
X116840000Y-165100000D02*
X119380000Y-165100000D01*
X116840000Y-106680000D02*
X116840000Y-165100000D01*
X180340000Y-165100000D02*
X119380000Y-165100000D01*
X119380000Y-100330000D02*
X180340000Y-100330000D01*
D12*
X121920000Y-142240000D03*
D13*
X124460000Y-142240000D03*
X127000000Y-142240000D03*
X129540000Y-142240000D03*
X132080000Y-142240000D03*
X134620000Y-142240000D03*
X137160000Y-142240000D03*
X139700000Y-142240000D03*
X142240000Y-142240000D03*
X144780000Y-142240000D03*
X147320000Y-142240000D03*
X149860000Y-142240000D03*
X152400000Y-142240000D03*
X154940000Y-142240000D03*
X157480000Y-142240000D03*
X160020000Y-142240000D03*
X162560000Y-142240000D03*
X165100000Y-142240000D03*
D12*
X175260000Y-144780000D03*
D13*
X175260000Y-147320000D03*
X175260000Y-149860000D03*
X175260000Y-152400000D03*
X175260000Y-154940000D03*
X175260000Y-157480000D03*
D12*
X124460000Y-111760000D03*
D13*
X124460000Y-114300000D03*
X124460000Y-116840000D03*
X124460000Y-119380000D03*
X124460000Y-121920000D03*
X124460000Y-124460000D03*
X124460000Y-127000000D03*
X124460000Y-129540000D03*
D12*
X147320000Y-111760000D03*
D13*
X147320000Y-114300000D03*
X147320000Y-116840000D03*
X147320000Y-119380000D03*
X147320000Y-121920000D03*
X147320000Y-124460000D03*
X147320000Y-127000000D03*
X147320000Y-129540000D03*
D12*
X153670000Y-111760000D03*
D13*
X153670000Y-114300000D03*
X153670000Y-116840000D03*
X153670000Y-119380000D03*
X153670000Y-121920000D03*
X153670000Y-124460000D03*
X153670000Y-127000000D03*
X153670000Y-129540000D03*
D12*
X176530000Y-111760000D03*
D13*
X176530000Y-114300000D03*
X176530000Y-116840000D03*
X176530000Y-119380000D03*
X176530000Y-121920000D03*
X176530000Y-124460000D03*
X176530000Y-127000000D03*
X176530000Y-129540000D03*
D12*
X127000000Y-160020000D03*
D13*
X129540000Y-160020000D03*
X132080000Y-160020000D03*
X134620000Y-160020000D03*
X137160000Y-160020000D03*
X139700000Y-160020000D03*
X142240000Y-160020000D03*
X144780000Y-160020000D03*
X147320000Y-160020000D03*
X149860000Y-160020000D03*
X152400000Y-160020000D03*
X154940000Y-160020000D03*
X157480000Y-160020000D03*
X160020000Y-160020000D03*
X162560000Y-160020000D03*
X165100000Y-160020000D03*
D14*
X165100000Y-160020000D02*
X165100000Y-158115000D01*
X168275000Y-154940000D02*
X175260000Y-154940000D01*
X165100000Y-158115000D02*
X168275000Y-154940000D01*
X118745000Y-102235000D02*
X157480000Y-102235000D01*
X153670000Y-127000000D02*
X157480000Y-127000000D01*
X157480000Y-102235000D02*
X180975000Y-102235000D01*
X157480000Y-127000000D02*
X157480000Y-102235000D01*
X181610000Y-148590000D02*
X175260000Y-154940000D01*
X181610000Y-102870000D02*
X181610000Y-148590000D01*
X180975000Y-102235000D02*
X181610000Y-102870000D01*
X118745000Y-127000000D02*
X118745000Y-102235000D01*
X124460000Y-127000000D02*
X118745000Y-127000000D01*
X165100000Y-142240000D02*
X165100000Y-153670000D01*
X162560000Y-156210000D02*
X162560000Y-160020000D01*
X165100000Y-153670000D02*
X162560000Y-156210000D01*
X175260000Y-157480000D02*
X175260000Y-161925000D01*
X174625000Y-162560000D02*
X162560000Y-162560000D01*
X175260000Y-161925000D02*
X174625000Y-162560000D01*
X124460000Y-129540000D02*
X118745000Y-129540000D01*
X162560000Y-162560000D02*
X162560000Y-160020000D01*
X118745000Y-162560000D02*
X162560000Y-162560000D01*
X118745000Y-129540000D02*
X118745000Y-162560000D01*
X153670000Y-129540000D02*
X152467919Y-129540000D01*
X152467919Y-129540000D02*
X151765000Y-129540000D01*
X151765000Y-129540000D02*
X147320000Y-129540000D01*
X169545000Y-132715000D02*
X173355000Y-132715000D01*
X173355000Y-132715000D02*
X176530000Y-129540000D01*
X169545000Y-137795000D02*
X169545000Y-132715000D01*
X165100000Y-142240000D02*
X169545000Y-137795000D01*
D15*
X151130000Y-106680000D02*
X153670000Y-106680000D01*
X153670000Y-106680000D02*
X153670000Y-111760000D01*
X131445000Y-106680000D02*
X151130000Y-106680000D01*
X130904999Y-107220001D02*
X131445000Y-106680000D01*
X127000000Y-160020000D02*
X127000000Y-158920000D01*
X127000000Y-158920000D02*
X130904999Y-155015001D01*
X130904999Y-155015001D02*
X130904999Y-107220001D01*
X127000000Y-160020000D02*
X127000000Y-161120000D01*
X129540000Y-160020000D02*
X133444999Y-156115001D01*
X133444999Y-156115001D02*
X133350000Y-109220000D01*
X133350000Y-109220000D02*
X136525000Y-109220000D01*
X136525000Y-109220000D02*
X137160000Y-109220000D01*
X137160000Y-109220000D02*
X150495000Y-109220000D01*
X150495000Y-109220000D02*
X150495000Y-114300000D01*
X150495000Y-114300000D02*
X153670000Y-114300000D01*
X132080000Y-160020000D02*
X135890000Y-156210000D01*
X135890000Y-156210000D02*
X135890000Y-115570000D01*
X135890000Y-115570000D02*
X152400000Y-115570000D01*
X152400000Y-115570000D02*
X153670000Y-116840000D01*
X153670000Y-119380000D02*
X152494999Y-118204999D01*
X138335001Y-156304999D02*
X134620000Y-160020000D01*
X152494999Y-118204999D02*
X138335001Y-118204999D01*
X138335001Y-118204999D02*
X137795000Y-118745000D01*
X138335001Y-141675999D02*
X138335001Y-156304999D01*
X137795000Y-118745000D02*
X137795000Y-141135998D01*
X137795000Y-141135998D02*
X138335001Y-141675999D01*
X140875001Y-126459999D02*
X146590001Y-120744999D01*
X152494999Y-120744999D02*
X152820001Y-121070001D01*
X146590001Y-120744999D02*
X152494999Y-120744999D01*
X152820001Y-121070001D02*
X153670000Y-121920000D01*
X137160000Y-160020000D02*
X140875001Y-156304999D01*
X140875001Y-156304999D02*
X140875001Y-126459999D01*
X153670000Y-124460000D02*
X152820001Y-123610001D01*
X152820001Y-123610001D02*
X149909001Y-123610001D01*
X149909001Y-123610001D02*
X147694003Y-125824999D01*
X140549999Y-159170001D02*
X139700000Y-160020000D01*
X147694003Y-125824999D02*
X146755999Y-125824999D01*
X146755999Y-125824999D02*
X143415001Y-129165997D01*
X143415001Y-129165997D02*
X143415001Y-156304999D01*
X143415001Y-156304999D02*
X140549999Y-159170001D01*
X158750000Y-114300000D02*
X161290000Y-111760000D01*
X161290000Y-111760000D02*
X176530000Y-111760000D01*
X158750000Y-127000000D02*
X158750000Y-114300000D01*
X148684999Y-137065001D02*
X158750000Y-127000000D01*
X144780000Y-160020000D02*
X148684999Y-156115001D01*
X148684999Y-156115001D02*
X148684999Y-137065001D01*
X160020000Y-129540000D02*
X151035001Y-138524999D01*
X151035001Y-138524999D02*
X151035001Y-158844999D01*
X151035001Y-158844999D02*
X150709999Y-159170001D01*
X150709999Y-159170001D02*
X149860000Y-160020000D01*
X160020000Y-116840000D02*
X160020000Y-129540000D01*
X162560000Y-114300000D02*
X160020000Y-116840000D01*
X176530000Y-114300000D02*
X162560000Y-114300000D01*
X165100000Y-116840000D02*
X176530000Y-116840000D01*
X161925000Y-120015000D02*
X165100000Y-116840000D01*
X161925000Y-130175000D02*
X161925000Y-120015000D01*
X153764999Y-138335001D02*
X161925000Y-130175000D01*
X152400000Y-160020000D02*
X153764999Y-158655001D01*
X153764999Y-158655001D02*
X153764999Y-138335001D01*
X163830000Y-132080000D02*
X156115001Y-139794999D01*
X156115001Y-139794999D02*
X156115001Y-158844999D01*
X156115001Y-158844999D02*
X155789999Y-159170001D01*
X155789999Y-159170001D02*
X154940000Y-160020000D01*
X163830000Y-120015000D02*
X163830000Y-132080000D01*
X164465000Y-119380000D02*
X163830000Y-120015000D01*
X176530000Y-119380000D02*
X164465000Y-119380000D01*
X158750000Y-141770998D02*
X158750000Y-158750000D01*
X158750000Y-158750000D02*
X157480000Y-160020000D01*
X165735000Y-123190000D02*
X165735000Y-134785998D01*
X165735000Y-134785998D02*
X158750000Y-141770998D01*
X167005000Y-121920000D02*
X165735000Y-123190000D01*
X176530000Y-121920000D02*
X167005000Y-121920000D01*
X167640000Y-126365000D02*
X169545000Y-124460000D01*
X169545000Y-124460000D02*
X176530000Y-124460000D01*
X167640000Y-134620000D02*
X167640000Y-126365000D01*
X161195001Y-141064999D02*
X167640000Y-134620000D01*
X160020000Y-160020000D02*
X161195001Y-158844999D01*
X161195001Y-158844999D02*
X161195001Y-141064999D01*
D16*
G36*
X182753000Y-163703000D02*
X118237000Y-163703000D01*
X118237000Y-129896890D01*
X123018524Y-129896890D01*
X123188355Y-130306924D01*
X123578642Y-130735183D01*
X124103108Y-130981486D01*
X124333000Y-130860819D01*
X124333000Y-129667000D01*
X124587000Y-129667000D01*
X124587000Y-130860819D01*
X124816892Y-130981486D01*
X125341358Y-130735183D01*
X125731645Y-130306924D01*
X125901476Y-129896890D01*
X125780155Y-129667000D01*
X124587000Y-129667000D01*
X124333000Y-129667000D01*
X123139845Y-129667000D01*
X123018524Y-129896890D01*
X118237000Y-129896890D01*
X118237000Y-127633719D01*
X118429286Y-127762201D01*
X118745000Y-127825000D01*
X123230477Y-127825000D01*
X123380853Y-128050054D01*
X123721553Y-128277702D01*
X123578642Y-128344817D01*
X123188355Y-128773076D01*
X123018524Y-129183110D01*
X123139845Y-129413000D01*
X124333000Y-129413000D01*
X124333000Y-129393000D01*
X124587000Y-129393000D01*
X124587000Y-129413000D01*
X125780155Y-129413000D01*
X125901476Y-129183110D01*
X125731645Y-128773076D01*
X125341358Y-128344817D01*
X125198447Y-128277702D01*
X125539147Y-128050054D01*
X125861054Y-127568285D01*
X125974093Y-127000000D01*
X125861054Y-126431715D01*
X125539147Y-125949946D01*
X125209974Y-125730000D01*
X125539147Y-125510054D01*
X125861054Y-125028285D01*
X125974093Y-124460000D01*
X125861054Y-123891715D01*
X125539147Y-123409946D01*
X125209974Y-123190000D01*
X125539147Y-122970054D01*
X125861054Y-122488285D01*
X125974093Y-121920000D01*
X125861054Y-121351715D01*
X125539147Y-120869946D01*
X125209974Y-120650000D01*
X125539147Y-120430054D01*
X125861054Y-119948285D01*
X125974093Y-119380000D01*
X125861054Y-118811715D01*
X125539147Y-118329946D01*
X125209974Y-118110000D01*
X125539147Y-117890054D01*
X125861054Y-117408285D01*
X125974093Y-116840000D01*
X125861054Y-116271715D01*
X125539147Y-115789946D01*
X125209974Y-115570000D01*
X125539147Y-115350054D01*
X125861054Y-114868285D01*
X125974093Y-114300000D01*
X125861054Y-113731715D01*
X125539147Y-113249946D01*
X125497548Y-113222150D01*
X125545317Y-113213162D01*
X125761441Y-113074090D01*
X125906431Y-112861890D01*
X125957440Y-112610000D01*
X125957440Y-110910000D01*
X125913162Y-110674683D01*
X125774090Y-110458559D01*
X125561890Y-110313569D01*
X125310000Y-110262560D01*
X123610000Y-110262560D01*
X123374683Y-110306838D01*
X123158559Y-110445910D01*
X123013569Y-110658110D01*
X122962560Y-110910000D01*
X122962560Y-112610000D01*
X123006838Y-112845317D01*
X123145910Y-113061441D01*
X123358110Y-113206431D01*
X123425541Y-113220086D01*
X123380853Y-113249946D01*
X123058946Y-113731715D01*
X122945907Y-114300000D01*
X123058946Y-114868285D01*
X123380853Y-115350054D01*
X123710026Y-115570000D01*
X123380853Y-115789946D01*
X123058946Y-116271715D01*
X122945907Y-116840000D01*
X123058946Y-117408285D01*
X123380853Y-117890054D01*
X123710026Y-118110000D01*
X123380853Y-118329946D01*
X123058946Y-118811715D01*
X122945907Y-119380000D01*
X123058946Y-119948285D01*
X123380853Y-120430054D01*
X123710026Y-120650000D01*
X123380853Y-120869946D01*
X123058946Y-121351715D01*
X122945907Y-121920000D01*
X123058946Y-122488285D01*
X123380853Y-122970054D01*
X123710026Y-123190000D01*
X123380853Y-123409946D01*
X123058946Y-123891715D01*
X122945907Y-124460000D01*
X123058946Y-125028285D01*
X123380853Y-125510054D01*
X123710026Y-125730000D01*
X123380853Y-125949946D01*
X123230477Y-126175000D01*
X119570000Y-126175000D01*
X119570000Y-103060000D01*
X156655000Y-103060000D01*
X156655000Y-126175000D01*
X154899523Y-126175000D01*
X154749147Y-125949946D01*
X154419974Y-125730000D01*
X154749147Y-125510054D01*
X155071054Y-125028285D01*
X155184093Y-124460000D01*
X155071054Y-123891715D01*
X154749147Y-123409946D01*
X154419974Y-123190000D01*
X154749147Y-122970054D01*
X155071054Y-122488285D01*
X155184093Y-121920000D01*
X155071054Y-121351715D01*
X154749147Y-120869946D01*
X154419974Y-120650000D01*
X154749147Y-120430054D01*
X155071054Y-119948285D01*
X155184093Y-119380000D01*
X155071054Y-118811715D01*
X154749147Y-118329946D01*
X154419974Y-118110000D01*
X154749147Y-117890054D01*
X155071054Y-117408285D01*
X155184093Y-116840000D01*
X155071054Y-116271715D01*
X154749147Y-115789946D01*
X154419974Y-115570000D01*
X154749147Y-115350054D01*
X155071054Y-114868285D01*
X155184093Y-114300000D01*
X155071054Y-113731715D01*
X154749147Y-113249946D01*
X154707548Y-113222150D01*
X154755317Y-113213162D01*
X154971441Y-113074090D01*
X155116431Y-112861890D01*
X155167440Y-112610000D01*
X155167440Y-110910000D01*
X155123162Y-110674683D01*
X154984090Y-110458559D01*
X154771890Y-110313569D01*
X154520000Y-110262560D01*
X154430000Y-110262560D01*
X154430000Y-106680000D01*
X154372148Y-106389161D01*
X154207401Y-106142599D01*
X153960839Y-105977852D01*
X153670000Y-105920000D01*
X131445000Y-105920000D01*
X131154161Y-105977852D01*
X130907599Y-106142599D01*
X130367598Y-106682600D01*
X130202851Y-106929162D01*
X130144999Y-107220001D01*
X130144999Y-140863477D01*
X130108285Y-140838946D01*
X129540000Y-140725907D01*
X128971715Y-140838946D01*
X128489946Y-141160853D01*
X128270000Y-141490026D01*
X128050054Y-141160853D01*
X127568285Y-140838946D01*
X127000000Y-140725907D01*
X126431715Y-140838946D01*
X125949946Y-141160853D01*
X125730000Y-141490026D01*
X125510054Y-141160853D01*
X125028285Y-140838946D01*
X124460000Y-140725907D01*
X123891715Y-140838946D01*
X123409946Y-141160853D01*
X123382150Y-141202452D01*
X123373162Y-141154683D01*
X123234090Y-140938559D01*
X123021890Y-140793569D01*
X122770000Y-140742560D01*
X121070000Y-140742560D01*
X120834683Y-140786838D01*
X120618559Y-140925910D01*
X120473569Y-141138110D01*
X120422560Y-141390000D01*
X120422560Y-143090000D01*
X120466838Y-143325317D01*
X120605910Y-143541441D01*
X120818110Y-143686431D01*
X121070000Y-143737440D01*
X122770000Y-143737440D01*
X123005317Y-143693162D01*
X123221441Y-143554090D01*
X123366431Y-143341890D01*
X123380086Y-143274459D01*
X123409946Y-143319147D01*
X123891715Y-143641054D01*
X124460000Y-143754093D01*
X125028285Y-143641054D01*
X125510054Y-143319147D01*
X125730000Y-142989974D01*
X125949946Y-143319147D01*
X126431715Y-143641054D01*
X127000000Y-143754093D01*
X127568285Y-143641054D01*
X128050054Y-143319147D01*
X128270000Y-142989974D01*
X128489946Y-143319147D01*
X128971715Y-143641054D01*
X129540000Y-143754093D01*
X130108285Y-143641054D01*
X130144999Y-143616523D01*
X130144999Y-154700199D01*
X126462599Y-158382599D01*
X126369080Y-158522560D01*
X126150000Y-158522560D01*
X125914683Y-158566838D01*
X125698559Y-158705910D01*
X125553569Y-158918110D01*
X125502560Y-159170000D01*
X125502560Y-160870000D01*
X125546838Y-161105317D01*
X125685910Y-161321441D01*
X125898110Y-161466431D01*
X126150000Y-161517440D01*
X126369080Y-161517440D01*
X126462599Y-161657401D01*
X126709161Y-161822148D01*
X127000000Y-161880000D01*
X127290839Y-161822148D01*
X127537401Y-161657401D01*
X127630920Y-161517440D01*
X127850000Y-161517440D01*
X128085317Y-161473162D01*
X128301441Y-161334090D01*
X128446431Y-161121890D01*
X128460086Y-161054459D01*
X128489946Y-161099147D01*
X128971715Y-161421054D01*
X129540000Y-161534093D01*
X130108285Y-161421054D01*
X130590054Y-161099147D01*
X130810000Y-160769974D01*
X131029946Y-161099147D01*
X131511715Y-161421054D01*
X132080000Y-161534093D01*
X132648285Y-161421054D01*
X133130054Y-161099147D01*
X133350000Y-160769974D01*
X133569946Y-161099147D01*
X134051715Y-161421054D01*
X134620000Y-161534093D01*
X135188285Y-161421054D01*
X135670054Y-161099147D01*
X135890000Y-160769974D01*
X136109946Y-161099147D01*
X136591715Y-161421054D01*
X137160000Y-161534093D01*
X137728285Y-161421054D01*
X138210054Y-161099147D01*
X138430000Y-160769974D01*
X138649946Y-161099147D01*
X139131715Y-161421054D01*
X139700000Y-161534093D01*
X140268285Y-161421054D01*
X140750054Y-161099147D01*
X140970000Y-160769974D01*
X141189946Y-161099147D01*
X141671715Y-161421054D01*
X142240000Y-161534093D01*
X142808285Y-161421054D01*
X143290054Y-161099147D01*
X143510000Y-160769974D01*
X143729946Y-161099147D01*
X144211715Y-161421054D01*
X144780000Y-161534093D01*
X145348285Y-161421054D01*
X145830054Y-161099147D01*
X146050000Y-160769974D01*
X146269946Y-161099147D01*
X146751715Y-161421054D01*
X147320000Y-161534093D01*
X147888285Y-161421054D01*
X148370054Y-161099147D01*
X148590000Y-160769974D01*
X148809946Y-161099147D01*
X149291715Y-161421054D01*
X149860000Y-161534093D01*
X150428285Y-161421054D01*
X150910054Y-161099147D01*
X151130000Y-160769974D01*
X151349946Y-161099147D01*
X151831715Y-161421054D01*
X152400000Y-161534093D01*
X152968285Y-161421054D01*
X153450054Y-161099147D01*
X153670000Y-160769974D01*
X153889946Y-161099147D01*
X154371715Y-161421054D01*
X154940000Y-161534093D01*
X155508285Y-161421054D01*
X155990054Y-161099147D01*
X156210000Y-160769974D01*
X156429946Y-161099147D01*
X156911715Y-161421054D01*
X157480000Y-161534093D01*
X158048285Y-161421054D01*
X158530054Y-161099147D01*
X158750000Y-160769974D01*
X158969946Y-161099147D01*
X159451715Y-161421054D01*
X160020000Y-161534093D01*
X160588285Y-161421054D01*
X161070054Y-161099147D01*
X161297702Y-160758447D01*
X161364817Y-160901358D01*
X161793076Y-161291645D01*
X162203110Y-161461476D01*
X162433000Y-161340155D01*
X162433000Y-160147000D01*
X162413000Y-160147000D01*
X162413000Y-159893000D01*
X162433000Y-159893000D01*
X162433000Y-158699845D01*
X162203110Y-158578524D01*
X161955001Y-158681288D01*
X161955001Y-143616523D01*
X161991715Y-143641054D01*
X162560000Y-143754093D01*
X163128285Y-143641054D01*
X163610054Y-143319147D01*
X163837702Y-142978447D01*
X163904817Y-143121358D01*
X164333076Y-143511645D01*
X164743110Y-143681476D01*
X164973000Y-143560155D01*
X164973000Y-142367000D01*
X165227000Y-142367000D01*
X165227000Y-143560155D01*
X165456890Y-143681476D01*
X165866924Y-143511645D01*
X166295183Y-143121358D01*
X166541486Y-142596892D01*
X166420819Y-142367000D01*
X165227000Y-142367000D01*
X164973000Y-142367000D01*
X164953000Y-142367000D01*
X164953000Y-142113000D01*
X164973000Y-142113000D01*
X164973000Y-140919845D01*
X165227000Y-140919845D01*
X165227000Y-142113000D01*
X166420819Y-142113000D01*
X166541486Y-141883108D01*
X166295183Y-141358642D01*
X165866924Y-140968355D01*
X165456890Y-140798524D01*
X165227000Y-140919845D01*
X164973000Y-140919845D01*
X164743110Y-140798524D01*
X164333076Y-140968355D01*
X163904817Y-141358642D01*
X163837702Y-141501553D01*
X163610054Y-141160853D01*
X163128285Y-140838946D01*
X162600783Y-140734019D01*
X168177401Y-135157401D01*
X168342148Y-134910839D01*
X168400000Y-134620000D01*
X168400000Y-129896890D01*
X175088524Y-129896890D01*
X175258355Y-130306924D01*
X175648642Y-130735183D01*
X176173108Y-130981486D01*
X176403000Y-130860819D01*
X176403000Y-129667000D01*
X176657000Y-129667000D01*
X176657000Y-130860819D01*
X176886892Y-130981486D01*
X177411358Y-130735183D01*
X177801645Y-130306924D01*
X177971476Y-129896890D01*
X177850155Y-129667000D01*
X176657000Y-129667000D01*
X176403000Y-129667000D01*
X175209845Y-129667000D01*
X175088524Y-129896890D01*
X168400000Y-129896890D01*
X168400000Y-126679802D01*
X169859802Y-125220000D01*
X175257046Y-125220000D01*
X175450853Y-125510054D01*
X175780026Y-125730000D01*
X175450853Y-125949946D01*
X175128946Y-126431715D01*
X175015907Y-127000000D01*
X175128946Y-127568285D01*
X175450853Y-128050054D01*
X175791553Y-128277702D01*
X175648642Y-128344817D01*
X175258355Y-128773076D01*
X175088524Y-129183110D01*
X175209845Y-129413000D01*
X176403000Y-129413000D01*
X176403000Y-129393000D01*
X176657000Y-129393000D01*
X176657000Y-129413000D01*
X177850155Y-129413000D01*
X177971476Y-129183110D01*
X177801645Y-128773076D01*
X177411358Y-128344817D01*
X177268447Y-128277702D01*
X177609147Y-128050054D01*
X177931054Y-127568285D01*
X178044093Y-127000000D01*
X177931054Y-126431715D01*
X177609147Y-125949946D01*
X177279974Y-125730000D01*
X177609147Y-125510054D01*
X177931054Y-125028285D01*
X178044093Y-124460000D01*
X177931054Y-123891715D01*
X177609147Y-123409946D01*
X177279974Y-123190000D01*
X177609147Y-122970054D01*
X177931054Y-122488285D01*
X178044093Y-121920000D01*
X177931054Y-121351715D01*
X177609147Y-120869946D01*
X177279974Y-120650000D01*
X177609147Y-120430054D01*
X177931054Y-119948285D01*
X178044093Y-119380000D01*
X177931054Y-118811715D01*
X177609147Y-118329946D01*
X177279974Y-118110000D01*
X177609147Y-117890054D01*
X177931054Y-117408285D01*
X178044093Y-116840000D01*
X177931054Y-116271715D01*
X177609147Y-115789946D01*
X177279974Y-115570000D01*
X177609147Y-115350054D01*
X177931054Y-114868285D01*
X178044093Y-114300000D01*
X177931054Y-113731715D01*
X177609147Y-113249946D01*
X177567548Y-113222150D01*
X177615317Y-113213162D01*
X177831441Y-113074090D01*
X177976431Y-112861890D01*
X178027440Y-112610000D01*
X178027440Y-110910000D01*
X177983162Y-110674683D01*
X177844090Y-110458559D01*
X177631890Y-110313569D01*
X177380000Y-110262560D01*
X175680000Y-110262560D01*
X175444683Y-110306838D01*
X175228559Y-110445910D01*
X175083569Y-110658110D01*
X175032560Y-110910000D01*
X175032560Y-111000000D01*
X161290000Y-111000000D01*
X161047414Y-111048254D01*
X160999160Y-111057852D01*
X160752599Y-111222599D01*
X158305000Y-113670198D01*
X158305000Y-103060000D01*
X180633274Y-103060000D01*
X180785000Y-103211726D01*
X180785000Y-148248274D01*
X176750730Y-152282544D01*
X176661054Y-151831715D01*
X176339147Y-151349946D01*
X176009974Y-151130000D01*
X176339147Y-150910054D01*
X176661054Y-150428285D01*
X176774093Y-149860000D01*
X176661054Y-149291715D01*
X176339147Y-148809946D01*
X176009974Y-148590000D01*
X176339147Y-148370054D01*
X176661054Y-147888285D01*
X176774093Y-147320000D01*
X176661054Y-146751715D01*
X176339147Y-146269946D01*
X176297548Y-146242150D01*
X176345317Y-146233162D01*
X176561441Y-146094090D01*
X176706431Y-145881890D01*
X176757440Y-145630000D01*
X176757440Y-143930000D01*
X176713162Y-143694683D01*
X176574090Y-143478559D01*
X176361890Y-143333569D01*
X176110000Y-143282560D01*
X174410000Y-143282560D01*
X174174683Y-143326838D01*
X173958559Y-143465910D01*
X173813569Y-143678110D01*
X173762560Y-143930000D01*
X173762560Y-145630000D01*
X173806838Y-145865317D01*
X173945910Y-146081441D01*
X174158110Y-146226431D01*
X174225541Y-146240086D01*
X174180853Y-146269946D01*
X173858946Y-146751715D01*
X173745907Y-147320000D01*
X173858946Y-147888285D01*
X174180853Y-148370054D01*
X174510026Y-148590000D01*
X174180853Y-148809946D01*
X173858946Y-149291715D01*
X173745907Y-149860000D01*
X173858946Y-150428285D01*
X174180853Y-150910054D01*
X174510026Y-151130000D01*
X174180853Y-151349946D01*
X173858946Y-151831715D01*
X173745907Y-152400000D01*
X173858946Y-152968285D01*
X174180853Y-153450054D01*
X174510026Y-153670000D01*
X174180853Y-153889946D01*
X174030477Y-154115000D01*
X168275000Y-154115000D01*
X167959286Y-154177799D01*
X167691637Y-154356637D01*
X164516637Y-157531637D01*
X164337799Y-157799286D01*
X164275000Y-158115000D01*
X164275000Y-158790477D01*
X164049946Y-158940853D01*
X163822298Y-159281553D01*
X163755183Y-159138642D01*
X163326924Y-158748355D01*
X162916890Y-158578524D01*
X162687000Y-158699845D01*
X162687000Y-159893000D01*
X162707000Y-159893000D01*
X162707000Y-160147000D01*
X162687000Y-160147000D01*
X162687000Y-161340155D01*
X162916890Y-161461476D01*
X163326924Y-161291645D01*
X163755183Y-160901358D01*
X163822298Y-160758447D01*
X164049946Y-161099147D01*
X164531715Y-161421054D01*
X165100000Y-161534093D01*
X165668285Y-161421054D01*
X166150054Y-161099147D01*
X166471961Y-160617378D01*
X166585000Y-160049093D01*
X166585000Y-159990907D01*
X166471961Y-159422622D01*
X166150054Y-158940853D01*
X165925000Y-158790477D01*
X165925000Y-158456726D01*
X166544836Y-157836890D01*
X173818524Y-157836890D01*
X173988355Y-158246924D01*
X174378642Y-158675183D01*
X174903108Y-158921486D01*
X175133000Y-158800819D01*
X175133000Y-157607000D01*
X175387000Y-157607000D01*
X175387000Y-158800819D01*
X175616892Y-158921486D01*
X176141358Y-158675183D01*
X176531645Y-158246924D01*
X176701476Y-157836890D01*
X176580155Y-157607000D01*
X175387000Y-157607000D01*
X175133000Y-157607000D01*
X173939845Y-157607000D01*
X173818524Y-157836890D01*
X166544836Y-157836890D01*
X168616726Y-155765000D01*
X174030477Y-155765000D01*
X174180853Y-155990054D01*
X174521553Y-156217702D01*
X174378642Y-156284817D01*
X173988355Y-156713076D01*
X173818524Y-157123110D01*
X173939845Y-157353000D01*
X175133000Y-157353000D01*
X175133000Y-157333000D01*
X175387000Y-157333000D01*
X175387000Y-157353000D01*
X176580155Y-157353000D01*
X176701476Y-157123110D01*
X176531645Y-156713076D01*
X176141358Y-156284817D01*
X175998447Y-156217702D01*
X176339147Y-155990054D01*
X176661054Y-155508285D01*
X176774093Y-154940000D01*
X176716461Y-154650265D01*
X182193363Y-149173363D01*
X182372201Y-148905714D01*
X182435000Y-148590000D01*
X182435000Y-102870000D01*
X182372201Y-102554286D01*
X182193363Y-102286637D01*
X181633726Y-101727000D01*
X182753000Y-101727000D01*
X182753000Y-163703000D01*
X182753000Y-163703000D01*
G37*
X182753000Y-163703000D02*
X118237000Y-163703000D01*
X118237000Y-129896890D01*
X123018524Y-129896890D01*
X123188355Y-130306924D01*
X123578642Y-130735183D01*
X124103108Y-130981486D01*
X124333000Y-130860819D01*
X124333000Y-129667000D01*
X124587000Y-129667000D01*
X124587000Y-130860819D01*
X124816892Y-130981486D01*
X125341358Y-130735183D01*
X125731645Y-130306924D01*
X125901476Y-129896890D01*
X125780155Y-129667000D01*
X124587000Y-129667000D01*
X124333000Y-129667000D01*
X123139845Y-129667000D01*
X123018524Y-129896890D01*
X118237000Y-129896890D01*
X118237000Y-127633719D01*
X118429286Y-127762201D01*
X118745000Y-127825000D01*
X123230477Y-127825000D01*
X123380853Y-128050054D01*
X123721553Y-128277702D01*
X123578642Y-128344817D01*
X123188355Y-128773076D01*
X123018524Y-129183110D01*
X123139845Y-129413000D01*
X124333000Y-129413000D01*
X124333000Y-129393000D01*
X124587000Y-129393000D01*
X124587000Y-129413000D01*
X125780155Y-129413000D01*
X125901476Y-129183110D01*
X125731645Y-128773076D01*
X125341358Y-128344817D01*
X125198447Y-128277702D01*
X125539147Y-128050054D01*
X125861054Y-127568285D01*
X125974093Y-127000000D01*
X125861054Y-126431715D01*
X125539147Y-125949946D01*
X125209974Y-125730000D01*
X125539147Y-125510054D01*
X125861054Y-125028285D01*
X125974093Y-124460000D01*
X125861054Y-123891715D01*
X125539147Y-123409946D01*
X125209974Y-123190000D01*
X125539147Y-122970054D01*
X125861054Y-122488285D01*
X125974093Y-121920000D01*
X125861054Y-121351715D01*
X125539147Y-120869946D01*
X125209974Y-120650000D01*
X125539147Y-120430054D01*
X125861054Y-119948285D01*
X125974093Y-119380000D01*
X125861054Y-118811715D01*
X125539147Y-118329946D01*
X125209974Y-118110000D01*
X125539147Y-117890054D01*
X125861054Y-117408285D01*
X125974093Y-116840000D01*
X125861054Y-116271715D01*
X125539147Y-115789946D01*
X125209974Y-115570000D01*
X125539147Y-115350054D01*
X125861054Y-114868285D01*
X125974093Y-114300000D01*
X125861054Y-113731715D01*
X125539147Y-113249946D01*
X125497548Y-113222150D01*
X125545317Y-113213162D01*
X125761441Y-113074090D01*
X125906431Y-112861890D01*
X125957440Y-112610000D01*
X125957440Y-110910000D01*
X125913162Y-110674683D01*
X125774090Y-110458559D01*
X125561890Y-110313569D01*
X125310000Y-110262560D01*
X123610000Y-110262560D01*
X123374683Y-110306838D01*
X123158559Y-110445910D01*
X123013569Y-110658110D01*
X122962560Y-110910000D01*
X122962560Y-112610000D01*
X123006838Y-112845317D01*
X123145910Y-113061441D01*
X123358110Y-113206431D01*
X123425541Y-113220086D01*
X123380853Y-113249946D01*
X123058946Y-113731715D01*
X122945907Y-114300000D01*
X123058946Y-114868285D01*
X123380853Y-115350054D01*
X123710026Y-115570000D01*
X123380853Y-115789946D01*
X123058946Y-116271715D01*
X122945907Y-116840000D01*
X123058946Y-117408285D01*
X123380853Y-117890054D01*
X123710026Y-118110000D01*
X123380853Y-118329946D01*
X123058946Y-118811715D01*
X122945907Y-119380000D01*
X123058946Y-119948285D01*
X123380853Y-120430054D01*
X123710026Y-120650000D01*
X123380853Y-120869946D01*
X123058946Y-121351715D01*
X122945907Y-121920000D01*
X123058946Y-122488285D01*
X123380853Y-122970054D01*
X123710026Y-123190000D01*
X123380853Y-123409946D01*
X123058946Y-123891715D01*
X122945907Y-124460000D01*
X123058946Y-125028285D01*
X123380853Y-125510054D01*
X123710026Y-125730000D01*
X123380853Y-125949946D01*
X123230477Y-126175000D01*
X119570000Y-126175000D01*
X119570000Y-103060000D01*
X156655000Y-103060000D01*
X156655000Y-126175000D01*
X154899523Y-126175000D01*
X154749147Y-125949946D01*
X154419974Y-125730000D01*
X154749147Y-125510054D01*
X155071054Y-125028285D01*
X155184093Y-124460000D01*
X155071054Y-123891715D01*
X154749147Y-123409946D01*
X154419974Y-123190000D01*
X154749147Y-122970054D01*
X155071054Y-122488285D01*
X155184093Y-121920000D01*
X155071054Y-121351715D01*
X154749147Y-120869946D01*
X154419974Y-120650000D01*
X154749147Y-120430054D01*
X155071054Y-119948285D01*
X155184093Y-119380000D01*
X155071054Y-118811715D01*
X154749147Y-118329946D01*
X154419974Y-118110000D01*
X154749147Y-117890054D01*
X155071054Y-117408285D01*
X155184093Y-116840000D01*
X155071054Y-116271715D01*
X154749147Y-115789946D01*
X154419974Y-115570000D01*
X154749147Y-115350054D01*
X155071054Y-114868285D01*
X155184093Y-114300000D01*
X155071054Y-113731715D01*
X154749147Y-113249946D01*
X154707548Y-113222150D01*
X154755317Y-113213162D01*
X154971441Y-113074090D01*
X155116431Y-112861890D01*
X155167440Y-112610000D01*
X155167440Y-110910000D01*
X155123162Y-110674683D01*
X154984090Y-110458559D01*
X154771890Y-110313569D01*
X154520000Y-110262560D01*
X154430000Y-110262560D01*
X154430000Y-106680000D01*
X154372148Y-106389161D01*
X154207401Y-106142599D01*
X153960839Y-105977852D01*
X153670000Y-105920000D01*
X131445000Y-105920000D01*
X131154161Y-105977852D01*
X130907599Y-106142599D01*
X130367598Y-106682600D01*
X130202851Y-106929162D01*
X130144999Y-107220001D01*
X130144999Y-140863477D01*
X130108285Y-140838946D01*
X129540000Y-140725907D01*
X128971715Y-140838946D01*
X128489946Y-141160853D01*
X128270000Y-141490026D01*
X128050054Y-141160853D01*
X127568285Y-140838946D01*
X127000000Y-140725907D01*
X126431715Y-140838946D01*
X125949946Y-141160853D01*
X125730000Y-141490026D01*
X125510054Y-141160853D01*
X125028285Y-140838946D01*
X124460000Y-140725907D01*
X123891715Y-140838946D01*
X123409946Y-141160853D01*
X123382150Y-141202452D01*
X123373162Y-141154683D01*
X123234090Y-140938559D01*
X123021890Y-140793569D01*
X122770000Y-140742560D01*
X121070000Y-140742560D01*
X120834683Y-140786838D01*
X120618559Y-140925910D01*
X120473569Y-141138110D01*
X120422560Y-141390000D01*
X120422560Y-143090000D01*
X120466838Y-143325317D01*
X120605910Y-143541441D01*
X120818110Y-143686431D01*
X121070000Y-143737440D01*
X122770000Y-143737440D01*
X123005317Y-143693162D01*
X123221441Y-143554090D01*
X123366431Y-143341890D01*
X123380086Y-143274459D01*
X123409946Y-143319147D01*
X123891715Y-143641054D01*
X124460000Y-143754093D01*
X125028285Y-143641054D01*
X125510054Y-143319147D01*
X125730000Y-142989974D01*
X125949946Y-143319147D01*
X126431715Y-143641054D01*
X127000000Y-143754093D01*
X127568285Y-143641054D01*
X128050054Y-143319147D01*
X128270000Y-142989974D01*
X128489946Y-143319147D01*
X128971715Y-143641054D01*
X129540000Y-143754093D01*
X130108285Y-143641054D01*
X130144999Y-143616523D01*
X130144999Y-154700199D01*
X126462599Y-158382599D01*
X126369080Y-158522560D01*
X126150000Y-158522560D01*
X125914683Y-158566838D01*
X125698559Y-158705910D01*
X125553569Y-158918110D01*
X125502560Y-159170000D01*
X125502560Y-160870000D01*
X125546838Y-161105317D01*
X125685910Y-161321441D01*
X125898110Y-161466431D01*
X126150000Y-161517440D01*
X126369080Y-161517440D01*
X126462599Y-161657401D01*
X126709161Y-161822148D01*
X127000000Y-161880000D01*
X127290839Y-161822148D01*
X127537401Y-161657401D01*
X127630920Y-161517440D01*
X127850000Y-161517440D01*
X128085317Y-161473162D01*
X128301441Y-161334090D01*
X128446431Y-161121890D01*
X128460086Y-161054459D01*
X128489946Y-161099147D01*
X128971715Y-161421054D01*
X129540000Y-161534093D01*
X130108285Y-161421054D01*
X130590054Y-161099147D01*
X130810000Y-160769974D01*
X131029946Y-161099147D01*
X131511715Y-161421054D01*
X132080000Y-161534093D01*
X132648285Y-161421054D01*
X133130054Y-161099147D01*
X133350000Y-160769974D01*
X133569946Y-161099147D01*
X134051715Y-161421054D01*
X134620000Y-161534093D01*
X135188285Y-161421054D01*
X135670054Y-161099147D01*
X135890000Y-160769974D01*
X136109946Y-161099147D01*
X136591715Y-161421054D01*
X137160000Y-161534093D01*
X137728285Y-161421054D01*
X138210054Y-161099147D01*
X138430000Y-160769974D01*
X138649946Y-161099147D01*
X139131715Y-161421054D01*
X139700000Y-161534093D01*
X140268285Y-161421054D01*
X140750054Y-161099147D01*
X140970000Y-160769974D01*
X141189946Y-161099147D01*
X141671715Y-161421054D01*
X142240000Y-161534093D01*
X142808285Y-161421054D01*
X143290054Y-161099147D01*
X143510000Y-160769974D01*
X143729946Y-161099147D01*
X144211715Y-161421054D01*
X144780000Y-161534093D01*
X145348285Y-161421054D01*
X145830054Y-161099147D01*
X146050000Y-160769974D01*
X146269946Y-161099147D01*
X146751715Y-161421054D01*
X147320000Y-161534093D01*
X147888285Y-161421054D01*
X148370054Y-161099147D01*
X148590000Y-160769974D01*
X148809946Y-161099147D01*
X149291715Y-161421054D01*
X149860000Y-161534093D01*
X150428285Y-161421054D01*
X150910054Y-161099147D01*
X151130000Y-160769974D01*
X151349946Y-161099147D01*
X151831715Y-161421054D01*
X152400000Y-161534093D01*
X152968285Y-161421054D01*
X153450054Y-161099147D01*
X153670000Y-160769974D01*
X153889946Y-161099147D01*
X154371715Y-161421054D01*
X154940000Y-161534093D01*
X155508285Y-161421054D01*
X155990054Y-161099147D01*
X156210000Y-160769974D01*
X156429946Y-161099147D01*
X156911715Y-161421054D01*
X157480000Y-161534093D01*
X158048285Y-161421054D01*
X158530054Y-161099147D01*
X158750000Y-160769974D01*
X158969946Y-161099147D01*
X159451715Y-161421054D01*
X160020000Y-161534093D01*
X160588285Y-161421054D01*
X161070054Y-161099147D01*
X161297702Y-160758447D01*
X161364817Y-160901358D01*
X161793076Y-161291645D01*
X162203110Y-161461476D01*
X162433000Y-161340155D01*
X162433000Y-160147000D01*
X162413000Y-160147000D01*
X162413000Y-159893000D01*
X162433000Y-159893000D01*
X162433000Y-158699845D01*
X162203110Y-158578524D01*
X161955001Y-158681288D01*
X161955001Y-143616523D01*
X161991715Y-143641054D01*
X162560000Y-143754093D01*
X163128285Y-143641054D01*
X163610054Y-143319147D01*
X163837702Y-142978447D01*
X163904817Y-143121358D01*
X164333076Y-143511645D01*
X164743110Y-143681476D01*
X164973000Y-143560155D01*
X164973000Y-142367000D01*
X165227000Y-142367000D01*
X165227000Y-143560155D01*
X165456890Y-143681476D01*
X165866924Y-143511645D01*
X166295183Y-143121358D01*
X166541486Y-142596892D01*
X166420819Y-142367000D01*
X165227000Y-142367000D01*
X164973000Y-142367000D01*
X164953000Y-142367000D01*
X164953000Y-142113000D01*
X164973000Y-142113000D01*
X164973000Y-140919845D01*
X165227000Y-140919845D01*
X165227000Y-142113000D01*
X166420819Y-142113000D01*
X166541486Y-141883108D01*
X166295183Y-141358642D01*
X165866924Y-140968355D01*
X165456890Y-140798524D01*
X165227000Y-140919845D01*
X164973000Y-140919845D01*
X164743110Y-140798524D01*
X164333076Y-140968355D01*
X163904817Y-141358642D01*
X163837702Y-141501553D01*
X163610054Y-141160853D01*
X163128285Y-140838946D01*
X162600783Y-140734019D01*
X168177401Y-135157401D01*
X168342148Y-134910839D01*
X168400000Y-134620000D01*
X168400000Y-129896890D01*
X175088524Y-129896890D01*
X175258355Y-130306924D01*
X175648642Y-130735183D01*
X176173108Y-130981486D01*
X176403000Y-130860819D01*
X176403000Y-129667000D01*
X176657000Y-129667000D01*
X176657000Y-130860819D01*
X176886892Y-130981486D01*
X177411358Y-130735183D01*
X177801645Y-130306924D01*
X177971476Y-129896890D01*
X177850155Y-129667000D01*
X176657000Y-129667000D01*
X176403000Y-129667000D01*
X175209845Y-129667000D01*
X175088524Y-129896890D01*
X168400000Y-129896890D01*
X168400000Y-126679802D01*
X169859802Y-125220000D01*
X175257046Y-125220000D01*
X175450853Y-125510054D01*
X175780026Y-125730000D01*
X175450853Y-125949946D01*
X175128946Y-126431715D01*
X175015907Y-127000000D01*
X175128946Y-127568285D01*
X175450853Y-128050054D01*
X175791553Y-128277702D01*
X175648642Y-128344817D01*
X175258355Y-128773076D01*
X175088524Y-129183110D01*
X175209845Y-129413000D01*
X176403000Y-129413000D01*
X176403000Y-129393000D01*
X176657000Y-129393000D01*
X176657000Y-129413000D01*
X177850155Y-129413000D01*
X177971476Y-129183110D01*
X177801645Y-128773076D01*
X177411358Y-128344817D01*
X177268447Y-128277702D01*
X177609147Y-128050054D01*
X177931054Y-127568285D01*
X178044093Y-127000000D01*
X177931054Y-126431715D01*
X177609147Y-125949946D01*
X177279974Y-125730000D01*
X177609147Y-125510054D01*
X177931054Y-125028285D01*
X178044093Y-124460000D01*
X177931054Y-123891715D01*
X177609147Y-123409946D01*
X177279974Y-123190000D01*
X177609147Y-122970054D01*
X177931054Y-122488285D01*
X178044093Y-121920000D01*
X177931054Y-121351715D01*
X177609147Y-120869946D01*
X177279974Y-120650000D01*
X177609147Y-120430054D01*
X177931054Y-119948285D01*
X178044093Y-119380000D01*
X177931054Y-118811715D01*
X177609147Y-118329946D01*
X177279974Y-118110000D01*
X177609147Y-117890054D01*
X177931054Y-117408285D01*
X178044093Y-116840000D01*
X177931054Y-116271715D01*
X177609147Y-115789946D01*
X177279974Y-115570000D01*
X177609147Y-115350054D01*
X177931054Y-114868285D01*
X178044093Y-114300000D01*
X177931054Y-113731715D01*
X177609147Y-113249946D01*
X177567548Y-113222150D01*
X177615317Y-113213162D01*
X177831441Y-113074090D01*
X177976431Y-112861890D01*
X178027440Y-112610000D01*
X178027440Y-110910000D01*
X177983162Y-110674683D01*
X177844090Y-110458559D01*
X177631890Y-110313569D01*
X177380000Y-110262560D01*
X175680000Y-110262560D01*
X175444683Y-110306838D01*
X175228559Y-110445910D01*
X175083569Y-110658110D01*
X175032560Y-110910000D01*
X175032560Y-111000000D01*
X161290000Y-111000000D01*
X161047414Y-111048254D01*
X160999160Y-111057852D01*
X160752599Y-111222599D01*
X158305000Y-113670198D01*
X158305000Y-103060000D01*
X180633274Y-103060000D01*
X180785000Y-103211726D01*
X180785000Y-148248274D01*
X176750730Y-152282544D01*
X176661054Y-151831715D01*
X176339147Y-151349946D01*
X176009974Y-151130000D01*
X176339147Y-150910054D01*
X176661054Y-150428285D01*
X176774093Y-149860000D01*
X176661054Y-149291715D01*
X176339147Y-148809946D01*
X176009974Y-148590000D01*
X176339147Y-148370054D01*
X176661054Y-147888285D01*
X176774093Y-147320000D01*
X176661054Y-146751715D01*
X176339147Y-146269946D01*
X176297548Y-146242150D01*
X176345317Y-146233162D01*
X176561441Y-146094090D01*
X176706431Y-145881890D01*
X176757440Y-145630000D01*
X176757440Y-143930000D01*
X176713162Y-143694683D01*
X176574090Y-143478559D01*
X176361890Y-143333569D01*
X176110000Y-143282560D01*
X174410000Y-143282560D01*
X174174683Y-143326838D01*
X173958559Y-143465910D01*
X173813569Y-143678110D01*
X173762560Y-143930000D01*
X173762560Y-145630000D01*
X173806838Y-145865317D01*
X173945910Y-146081441D01*
X174158110Y-146226431D01*
X174225541Y-146240086D01*
X174180853Y-146269946D01*
X173858946Y-146751715D01*
X173745907Y-147320000D01*
X173858946Y-147888285D01*
X174180853Y-148370054D01*
X174510026Y-148590000D01*
X174180853Y-148809946D01*
X173858946Y-149291715D01*
X173745907Y-149860000D01*
X173858946Y-150428285D01*
X174180853Y-150910054D01*
X174510026Y-151130000D01*
X174180853Y-151349946D01*
X173858946Y-151831715D01*
X173745907Y-152400000D01*
X173858946Y-152968285D01*
X174180853Y-153450054D01*
X174510026Y-153670000D01*
X174180853Y-153889946D01*
X174030477Y-154115000D01*
X168275000Y-154115000D01*
X167959286Y-154177799D01*
X167691637Y-154356637D01*
X164516637Y-157531637D01*
X164337799Y-157799286D01*
X164275000Y-158115000D01*
X164275000Y-158790477D01*
X164049946Y-158940853D01*
X163822298Y-159281553D01*
X163755183Y-159138642D01*
X163326924Y-158748355D01*
X162916890Y-158578524D01*
X162687000Y-158699845D01*
X162687000Y-159893000D01*
X162707000Y-159893000D01*
X162707000Y-160147000D01*
X162687000Y-160147000D01*
X162687000Y-161340155D01*
X162916890Y-161461476D01*
X163326924Y-161291645D01*
X163755183Y-160901358D01*
X163822298Y-160758447D01*
X164049946Y-161099147D01*
X164531715Y-161421054D01*
X165100000Y-161534093D01*
X165668285Y-161421054D01*
X166150054Y-161099147D01*
X166471961Y-160617378D01*
X166585000Y-160049093D01*
X166585000Y-159990907D01*
X166471961Y-159422622D01*
X166150054Y-158940853D01*
X165925000Y-158790477D01*
X165925000Y-158456726D01*
X166544836Y-157836890D01*
X173818524Y-157836890D01*
X173988355Y-158246924D01*
X174378642Y-158675183D01*
X174903108Y-158921486D01*
X175133000Y-158800819D01*
X175133000Y-157607000D01*
X175387000Y-157607000D01*
X175387000Y-158800819D01*
X175616892Y-158921486D01*
X176141358Y-158675183D01*
X176531645Y-158246924D01*
X176701476Y-157836890D01*
X176580155Y-157607000D01*
X175387000Y-157607000D01*
X175133000Y-157607000D01*
X173939845Y-157607000D01*
X173818524Y-157836890D01*
X166544836Y-157836890D01*
X168616726Y-155765000D01*
X174030477Y-155765000D01*
X174180853Y-155990054D01*
X174521553Y-156217702D01*
X174378642Y-156284817D01*
X173988355Y-156713076D01*
X173818524Y-157123110D01*
X173939845Y-157353000D01*
X175133000Y-157353000D01*
X175133000Y-157333000D01*
X175387000Y-157333000D01*
X175387000Y-157353000D01*
X176580155Y-157353000D01*
X176701476Y-157123110D01*
X176531645Y-156713076D01*
X176141358Y-156284817D01*
X175998447Y-156217702D01*
X176339147Y-155990054D01*
X176661054Y-155508285D01*
X176774093Y-154940000D01*
X176716461Y-154650265D01*
X182193363Y-149173363D01*
X182372201Y-148905714D01*
X182435000Y-148590000D01*
X182435000Y-102870000D01*
X182372201Y-102554286D01*
X182193363Y-102286637D01*
X181633726Y-101727000D01*
X182753000Y-101727000D01*
X182753000Y-163703000D01*
G36*
X152155907Y-124460000D02*
X152268946Y-125028285D01*
X152590853Y-125510054D01*
X152920026Y-125730000D01*
X152590853Y-125949946D01*
X152268946Y-126431715D01*
X152155907Y-127000000D01*
X152268946Y-127568285D01*
X152590853Y-128050054D01*
X152931553Y-128277702D01*
X152788642Y-128344817D01*
X152398355Y-128773076D01*
X152228524Y-129183110D01*
X152349845Y-129413000D01*
X153543000Y-129413000D01*
X153543000Y-129393000D01*
X153797000Y-129393000D01*
X153797000Y-129413000D01*
X153817000Y-129413000D01*
X153817000Y-129667000D01*
X153797000Y-129667000D01*
X153797000Y-129687000D01*
X153543000Y-129687000D01*
X153543000Y-129667000D01*
X152349845Y-129667000D01*
X152228524Y-129896890D01*
X152398355Y-130306924D01*
X152788642Y-130735183D01*
X153313108Y-130981486D01*
X153542998Y-130860820D01*
X153542998Y-131025000D01*
X153650198Y-131025000D01*
X148147598Y-136527600D01*
X147982851Y-136774162D01*
X147924999Y-137065001D01*
X147924999Y-140863477D01*
X147888285Y-140838946D01*
X147320000Y-140725907D01*
X146751715Y-140838946D01*
X146269946Y-141160853D01*
X146050000Y-141490026D01*
X145830054Y-141160853D01*
X145348285Y-140838946D01*
X144780000Y-140725907D01*
X144211715Y-140838946D01*
X144175001Y-140863477D01*
X144175001Y-129896890D01*
X145878524Y-129896890D01*
X146048355Y-130306924D01*
X146438642Y-130735183D01*
X146963108Y-130981486D01*
X147193000Y-130860819D01*
X147193000Y-129667000D01*
X147447000Y-129667000D01*
X147447000Y-130860819D01*
X147676892Y-130981486D01*
X148201358Y-130735183D01*
X148591645Y-130306924D01*
X148761476Y-129896890D01*
X148640155Y-129667000D01*
X147447000Y-129667000D01*
X147193000Y-129667000D01*
X145999845Y-129667000D01*
X145878524Y-129896890D01*
X144175001Y-129896890D01*
X144175001Y-129480799D01*
X145986465Y-127669335D01*
X146240853Y-128050054D01*
X146581553Y-128277702D01*
X146438642Y-128344817D01*
X146048355Y-128773076D01*
X145878524Y-129183110D01*
X145999845Y-129413000D01*
X147193000Y-129413000D01*
X147193000Y-129393000D01*
X147447000Y-129393000D01*
X147447000Y-129413000D01*
X148640155Y-129413000D01*
X148761476Y-129183110D01*
X148591645Y-128773076D01*
X148201358Y-128344817D01*
X148058447Y-128277702D01*
X148399147Y-128050054D01*
X148721054Y-127568285D01*
X148834093Y-127000000D01*
X148721054Y-126431715D01*
X148497164Y-126096640D01*
X150223803Y-124370001D01*
X152173809Y-124370001D01*
X152155907Y-124460000D01*
X152155907Y-124460000D01*
G37*
X152155907Y-124460000D02*
X152268946Y-125028285D01*
X152590853Y-125510054D01*
X152920026Y-125730000D01*
X152590853Y-125949946D01*
X152268946Y-126431715D01*
X152155907Y-127000000D01*
X152268946Y-127568285D01*
X152590853Y-128050054D01*
X152931553Y-128277702D01*
X152788642Y-128344817D01*
X152398355Y-128773076D01*
X152228524Y-129183110D01*
X152349845Y-129413000D01*
X153543000Y-129413000D01*
X153543000Y-129393000D01*
X153797000Y-129393000D01*
X153797000Y-129413000D01*
X153817000Y-129413000D01*
X153817000Y-129667000D01*
X153797000Y-129667000D01*
X153797000Y-129687000D01*
X153543000Y-129687000D01*
X153543000Y-129667000D01*
X152349845Y-129667000D01*
X152228524Y-129896890D01*
X152398355Y-130306924D01*
X152788642Y-130735183D01*
X153313108Y-130981486D01*
X153542998Y-130860820D01*
X153542998Y-131025000D01*
X153650198Y-131025000D01*
X148147598Y-136527600D01*
X147982851Y-136774162D01*
X147924999Y-137065001D01*
X147924999Y-140863477D01*
X147888285Y-140838946D01*
X147320000Y-140725907D01*
X146751715Y-140838946D01*
X146269946Y-141160853D01*
X146050000Y-141490026D01*
X145830054Y-141160853D01*
X145348285Y-140838946D01*
X144780000Y-140725907D01*
X144211715Y-140838946D01*
X144175001Y-140863477D01*
X144175001Y-129896890D01*
X145878524Y-129896890D01*
X146048355Y-130306924D01*
X146438642Y-130735183D01*
X146963108Y-130981486D01*
X147193000Y-130860819D01*
X147193000Y-129667000D01*
X147447000Y-129667000D01*
X147447000Y-130860819D01*
X147676892Y-130981486D01*
X148201358Y-130735183D01*
X148591645Y-130306924D01*
X148761476Y-129896890D01*
X148640155Y-129667000D01*
X147447000Y-129667000D01*
X147193000Y-129667000D01*
X145999845Y-129667000D01*
X145878524Y-129896890D01*
X144175001Y-129896890D01*
X144175001Y-129480799D01*
X145986465Y-127669335D01*
X146240853Y-128050054D01*
X146581553Y-128277702D01*
X146438642Y-128344817D01*
X146048355Y-128773076D01*
X145878524Y-129183110D01*
X145999845Y-129413000D01*
X147193000Y-129413000D01*
X147193000Y-129393000D01*
X147447000Y-129393000D01*
X147447000Y-129413000D01*
X148640155Y-129413000D01*
X148761476Y-129183110D01*
X148591645Y-128773076D01*
X148201358Y-128344817D01*
X148058447Y-128277702D01*
X148399147Y-128050054D01*
X148721054Y-127568285D01*
X148834093Y-127000000D01*
X148721054Y-126431715D01*
X148497164Y-126096640D01*
X150223803Y-124370001D01*
X152173809Y-124370001D01*
X152155907Y-124460000D01*
M02*
