%TF.GenerationSoftware,KiCad,Pcbnew,4.0.7*%
%TF.CreationDate,2018-03-29T14:35:10+02:00*%
%TF.ProjectId,mikrobus-board,6D696B726F6275732D626F6172642E6B,rev?*%
%TF.FileFunction,Soldermask,Top*%
%FSLAX46Y46*%
G04 Gerber Fmt 4.6, Leading zero omitted, Abs format (unit mm)*
G04 Created by KiCad (PCBNEW 4.0.7) date 03/29/18 14:35:10*
%MOMM*%
%LPD*%
G01*
G04 APERTURE LIST*
%ADD10C,0.150000*%
%ADD11C,0.100000*%
%ADD12R,1.700000X1.700000*%
%ADD13O,1.700000X1.700000*%
G04 APERTURE END LIST*
D10*
D11*
X184150000Y-100330000D02*
X184150000Y-165100000D01*
X184150000Y-165100000D02*
X182880000Y-165100000D01*
X182880000Y-100330000D02*
X184150000Y-100330000D01*
X180340000Y-100330000D02*
X182880000Y-100330000D01*
X116840000Y-100330000D02*
X116840000Y-101600000D01*
X119380000Y-100330000D02*
X116840000Y-100330000D01*
X116840000Y-101600000D02*
X116840000Y-104140000D01*
X180340000Y-165100000D02*
X182880000Y-165100000D01*
X116840000Y-106680000D02*
X116840000Y-104140000D01*
X116840000Y-165100000D02*
X119380000Y-165100000D01*
X116840000Y-106680000D02*
X116840000Y-165100000D01*
X180340000Y-165100000D02*
X119380000Y-165100000D01*
X119380000Y-100330000D02*
X180340000Y-100330000D01*
D12*
X121920000Y-142240000D03*
D13*
X124460000Y-142240000D03*
X127000000Y-142240000D03*
X129540000Y-142240000D03*
X132080000Y-142240000D03*
X134620000Y-142240000D03*
X137160000Y-142240000D03*
X139700000Y-142240000D03*
X142240000Y-142240000D03*
X144780000Y-142240000D03*
X147320000Y-142240000D03*
X149860000Y-142240000D03*
X152400000Y-142240000D03*
X154940000Y-142240000D03*
X157480000Y-142240000D03*
X160020000Y-142240000D03*
X162560000Y-142240000D03*
X165100000Y-142240000D03*
D12*
X175260000Y-144780000D03*
D13*
X175260000Y-147320000D03*
X175260000Y-149860000D03*
X175260000Y-152400000D03*
X175260000Y-154940000D03*
X175260000Y-157480000D03*
D12*
X124460000Y-111760000D03*
D13*
X124460000Y-114300000D03*
X124460000Y-116840000D03*
X124460000Y-119380000D03*
X124460000Y-121920000D03*
X124460000Y-124460000D03*
X124460000Y-127000000D03*
X124460000Y-129540000D03*
D12*
X147320000Y-111760000D03*
D13*
X147320000Y-114300000D03*
X147320000Y-116840000D03*
X147320000Y-119380000D03*
X147320000Y-121920000D03*
X147320000Y-124460000D03*
X147320000Y-127000000D03*
X147320000Y-129540000D03*
D12*
X153670000Y-111760000D03*
D13*
X153670000Y-114300000D03*
X153670000Y-116840000D03*
X153670000Y-119380000D03*
X153670000Y-121920000D03*
X153670000Y-124460000D03*
X153670000Y-127000000D03*
X153670000Y-129540000D03*
D12*
X176530000Y-111760000D03*
D13*
X176530000Y-114300000D03*
X176530000Y-116840000D03*
X176530000Y-119380000D03*
X176530000Y-121920000D03*
X176530000Y-124460000D03*
X176530000Y-127000000D03*
X176530000Y-129540000D03*
D12*
X127000000Y-160020000D03*
D13*
X129540000Y-160020000D03*
X132080000Y-160020000D03*
X134620000Y-160020000D03*
X137160000Y-160020000D03*
X139700000Y-160020000D03*
X142240000Y-160020000D03*
X144780000Y-160020000D03*
X147320000Y-160020000D03*
X149860000Y-160020000D03*
X152400000Y-160020000D03*
X154940000Y-160020000D03*
X157480000Y-160020000D03*
X160020000Y-160020000D03*
X162560000Y-160020000D03*
X165100000Y-160020000D03*
M02*
